<svg width="1303" height="330" viewBox="0 0 1303 330" fill="none" xmlns="http://www.w3.org/2000/svg">
<path d="M1147.9 317.181L1147.76 320.497L1151.08 320.634L1151.22 317.319L1147.9 317.181Z" fill="#C4CFE1"/>
<path d="M1148.04 313.866L1147.9 317.181L1151.22 317.319L1151.35 314.003L1148.04 313.866Z" fill="#C4CFE1"/>
<path d="M1148.18 310.551L1148.04 313.866L1151.35 314.003L1151.49 310.688L1148.18 310.551Z" fill="#C4CFE1"/>
<path d="M1154.53 317.456L1154.39 320.772L1157.71 320.909L1157.85 317.594L1154.53 317.456Z" fill="#C4CFE1"/>
<path d="M1154.67 314.141L1154.53 317.456L1157.85 317.594L1157.98 314.278L1154.67 314.141Z" fill="#C4CFE1"/>
<path d="M1154.81 310.826L1154.67 314.141L1157.98 314.279L1158.12 310.963L1154.81 310.826Z" fill="#C4CFE1"/>
<path d="M1151.35 314.003L1151.22 317.319L1154.53 317.456L1154.67 314.141L1151.35 314.003Z" fill="#C4CFE1"/>
<path d="M1151.49 310.688L1151.35 314.003L1154.67 314.141L1154.81 310.826L1151.49 310.688Z" fill="#C4CFE1"/>
<path d="M1151.63 307.373L1151.49 310.688L1154.81 310.826L1154.94 307.511L1151.63 307.373Z" fill="#C4CFE1"/>
<path d="M1151.77 304.058L1151.9 300.742L1155.22 300.88L1155.08 304.195L1151.77 304.058Z" fill="#D4AE63"/>
<path d="M1155.22 300.88L1155.08 304.195L1158.4 304.333L1158.53 301.017L1155.22 300.88Z" fill="#D4AE63"/>
<path d="M1155.08 304.195L1154.94 307.511L1158.26 307.648L1158.4 304.333L1155.08 304.195Z" fill="#D4AE63"/>
<path d="M1151.22 317.319L1151.08 320.634L1154.39 320.772L1154.53 317.457L1151.22 317.319Z" fill="#C4CFE1"/>
<path d="M1170.97 321.459L1170.83 324.774L1174.15 324.912L1174.29 321.597L1170.97 321.459Z" fill="#D4AE63"/>
<path d="M1171.11 318.144L1170.97 321.459L1174.29 321.597L1174.42 318.281L1171.11 318.144Z" fill="#D4AE63"/>
<path d="M1177.6 321.734L1177.46 325.05L1180.78 325.187L1180.92 321.872L1177.6 321.734Z" fill="#D4AE63"/>
<path d="M1177.74 318.419L1177.6 321.734L1180.92 321.872L1181.05 318.557L1177.74 318.419Z" fill="#D4AE63"/>
<path d="M1181.05 318.557L1180.92 321.872L1184.23 322.009L1184.37 318.694L1181.05 318.557Z" fill="#D4AE63"/>
<path d="M1181.19 315.241L1181.05 318.556L1184.37 318.694L1184.51 315.379L1181.19 315.241Z" fill="#D4AE63"/>
<path d="M1184.51 315.379L1184.37 318.694L1187.68 318.831L1187.82 315.516L1184.51 315.379Z" fill="#D4AE63"/>
<path d="M1184.64 312.063L1184.51 315.379L1187.82 315.516L1187.96 312.201L1184.64 312.063Z" fill="#D4AE63"/>
<path d="M1184.78 308.748L1184.64 312.063L1187.96 312.201L1188.1 308.886L1184.78 308.748Z" fill="#D4AE63"/>
<path d="M1174.42 318.281L1174.29 321.597L1177.6 321.734L1177.74 318.419L1174.42 318.281Z" fill="#D4AE63"/>
<path d="M1168.89 291.485L1168.75 294.8L1172.07 294.937L1172.21 291.622L1168.89 291.485Z" fill="#D4AE63"/>
<path d="M1175.52 291.759L1175.39 295.075L1178.7 295.212L1178.84 291.897L1175.52 291.759Z" fill="#D4AE63"/>
<path d="M1172.21 291.622L1172.07 294.937L1175.39 295.075L1175.52 291.76L1172.21 291.622Z" fill="#D4AE63"/>
<path d="M1178.84 291.897L1178.7 295.212L1182.02 295.35L1182.15 292.035L1178.84 291.897Z" fill="#D4AE63"/>
<path d="M1185.47 292.172L1185.33 295.487L1188.65 295.625L1188.78 292.31L1185.47 292.172Z" fill="#D4AE63"/>
<path d="M1182.15 292.035L1182.02 295.35L1185.33 295.487L1185.47 292.172L1182.15 292.035Z" fill="#D4AE63"/>
<path d="M1162.12 294.525L1161.99 297.84L1165.3 297.977L1165.44 294.662L1162.12 294.525Z" fill="#D4AE63"/>
<path d="M1158.67 297.702L1158.54 301.018L1161.85 301.155L1161.99 297.84L1158.67 297.702Z" fill="#D4AE63"/>
<path d="M1165.44 294.662L1165.3 297.978L1168.62 298.115L1168.76 294.8L1165.44 294.662Z" fill="#D4AE63"/>
<path d="M1165.03 304.608L1164.89 307.923L1168.2 308.061L1168.34 304.745L1165.03 304.608Z" fill="#D4AE63"/>
<path d="M1181.6 305.296L1181.47 308.611L1184.78 308.748L1184.92 305.433L1181.6 305.296Z" fill="#D4AE63"/>
<path d="M1175.39 295.075L1175.25 298.39L1178.56 298.527L1178.7 295.212L1175.39 295.075Z" fill="#D4AE63"/>
<path d="M1178.7 295.212L1178.56 298.527L1181.88 298.665L1182.02 295.35L1178.7 295.212Z" fill="#D4AE63"/>
<path d="M1168.62 298.115L1168.48 301.43L1171.8 301.567L1171.93 298.252L1168.62 298.115Z" fill="#D4AE63"/>
<path d="M1171.93 298.252L1171.79 301.568L1175.11 301.705L1175.25 298.39L1171.93 298.252Z" fill="#D4AE63"/>
<path d="M1165.17 301.292L1165.03 304.608L1168.34 304.745L1168.48 301.43L1165.17 301.292Z" fill="#D4AE63"/>
<path d="M1168.48 301.43L1168.34 304.745L1171.66 304.883L1171.79 301.568L1168.48 301.43Z" fill="#D4AE63"/>
<path d="M1174.28 321.597L1174.15 324.912L1177.46 325.049L1177.6 321.734L1174.28 321.597Z" fill="#D4AE63"/>
<path d="M1151.08 320.634L1150.94 323.949L1154.26 324.087L1154.39 320.771L1151.08 320.634Z" fill="#C4CFE1"/>
<path d="M1161.57 307.786L1161.44 311.101L1164.75 311.238L1164.89 307.923L1161.57 307.786Z" fill="#D4AE63"/>
<path d="M1161.71 304.47L1161.57 307.786L1164.89 307.923L1165.03 304.608L1161.71 304.47Z" fill="#D4AE63"/>
<path d="M1161.44 311.101L1161.3 314.416L1164.62 314.554L1164.75 311.238L1161.44 311.101Z" fill="#D4AE63"/>
<path d="M1161.3 314.416L1161.16 317.731L1164.48 317.869L1164.62 314.553L1161.3 314.416Z" fill="#D4AE63"/>
<path d="M1164.75 311.238L1164.62 314.553L1167.93 314.691L1168.07 311.376L1164.75 311.238Z" fill="#D4AE63"/>
<path d="M1164.89 307.923L1164.75 311.239L1168.07 311.376L1168.21 308.061L1164.89 307.923Z" fill="#D4AE63"/>
<path d="M1164.62 314.553L1164.48 317.869L1167.79 318.006L1167.93 314.691L1164.62 314.553Z" fill="#D4AE63"/>
<path d="M1164.48 317.869L1164.34 321.184L1167.65 321.322L1167.79 318.007L1164.48 317.869Z" fill="#D4AE63"/>
<path d="M1167.93 314.691L1167.79 318.006L1171.11 318.144L1171.25 314.829L1167.93 314.691Z" fill="#D4AE63"/>
<path d="M1167.79 318.007L1167.65 321.322L1170.97 321.459L1171.11 318.144L1167.79 318.007Z" fill="#D4AE63"/>
<path d="M1167.66 321.322L1167.52 324.637L1170.83 324.774L1170.97 321.459L1167.66 321.322Z" fill="#D4AE63"/>
<path d="M1220.84 320.207L1220.7 323.522L1224.01 323.659L1224.15 320.344L1220.84 320.207Z" fill="#C4CFE1"/>
<path d="M1220.97 316.891L1220.84 320.207L1224.15 320.344L1224.29 317.029L1220.97 316.891Z" fill="#C4CFE1"/>
<path d="M1221.11 313.576L1220.97 316.891L1224.29 317.029L1224.43 313.714L1221.11 313.576Z" fill="#C4CFE1"/>
<path d="M1227.47 320.482L1227.33 323.797L1230.64 323.935L1230.78 320.619L1227.47 320.482Z" fill="#C4CFE1"/>
<path d="M1227.6 317.166L1227.47 320.481L1230.78 320.619L1230.92 317.304L1227.6 317.166Z" fill="#C4CFE1"/>
<path d="M1227.74 313.851L1227.6 317.166L1230.92 317.304L1231.06 313.989L1227.74 313.851Z" fill="#C4CFE1"/>
<path d="M1224.29 317.029L1224.15 320.344L1227.47 320.482L1227.61 317.166L1224.29 317.029Z" fill="#C4CFE1"/>
<path d="M1224.43 313.714L1224.29 317.029L1227.6 317.166L1227.74 313.851L1224.43 313.714Z" fill="#C4CFE1"/>
<path d="M1224.56 310.398L1224.43 313.714L1227.74 313.851L1227.88 310.536L1224.56 310.398Z" fill="#C4CFE1"/>
<path d="M1224.7 307.083L1224.84 303.768L1228.15 303.905L1228.02 307.22L1224.7 307.083Z" fill="#D4AE63"/>
<path d="M1228.16 303.905L1228.02 307.22L1231.33 307.358L1231.47 304.043L1228.16 303.905Z" fill="#D4AE63"/>
<path d="M1228.02 307.221L1227.88 310.536L1231.19 310.674L1231.33 307.358L1228.02 307.221Z" fill="#D4AE63"/>
<path d="M1224.15 320.344L1224.01 323.659L1227.33 323.797L1227.47 320.482L1224.15 320.344Z" fill="#C4CFE1"/>
<path d="M1243.91 324.485L1243.77 327.8L1247.08 327.937L1247.22 324.622L1243.91 324.485Z" fill="#D4AE63"/>
<path d="M1244.04 321.169L1243.91 324.485L1247.22 324.622L1247.36 321.307L1244.04 321.169Z" fill="#D4AE63"/>
<path d="M1250.54 324.759L1250.4 328.075L1253.71 328.212L1253.85 324.897L1250.54 324.759Z" fill="#D4AE63"/>
<path d="M1250.67 321.445L1250.54 324.76L1253.85 324.897L1253.99 321.582L1250.67 321.445Z" fill="#D4AE63"/>
<path d="M1253.99 321.582L1253.85 324.897L1257.17 325.035L1257.3 321.719L1253.99 321.582Z" fill="#D4AE63"/>
<path d="M1254.13 318.266L1253.99 321.582L1257.3 321.719L1257.44 318.404L1254.13 318.266Z" fill="#D4AE63"/>
<path d="M1257.44 318.404L1257.3 321.719L1260.62 321.857L1260.76 318.542L1257.44 318.404Z" fill="#D4AE63"/>
<path d="M1257.58 315.089L1257.44 318.404L1260.76 318.542L1260.89 315.226L1257.58 315.089Z" fill="#D4AE63"/>
<path d="M1257.72 311.774L1257.58 315.089L1260.89 315.226L1261.03 311.911L1257.72 311.774Z" fill="#D4AE63"/>
<path d="M1247.36 321.307L1247.22 324.622L1250.54 324.76L1250.67 321.444L1247.36 321.307Z" fill="#D4AE63"/>
<path d="M1241.83 294.51L1241.69 297.825L1245.01 297.963L1245.14 294.647L1241.83 294.51Z" fill="#D4AE63"/>
<path d="M1248.46 294.785L1248.32 298.1L1251.64 298.238L1251.77 294.922L1248.46 294.785Z" fill="#D4AE63"/>
<path d="M1245.14 294.647L1245.01 297.963L1248.32 298.1L1248.46 294.785L1245.14 294.647Z" fill="#D4AE63"/>
<path d="M1251.77 294.923L1251.64 298.238L1254.95 298.375L1255.09 295.06L1251.77 294.923Z" fill="#D4AE63"/>
<path d="M1258.4 295.197L1258.27 298.513L1261.58 298.65L1261.72 295.335L1258.4 295.197Z" fill="#D4AE63"/>
<path d="M1255.09 295.06L1254.95 298.375L1258.27 298.513L1258.4 295.198L1255.09 295.06Z" fill="#D4AE63"/>
<path d="M1261.58 298.65L1261.44 301.965L1264.76 302.103L1264.9 298.788L1261.58 298.65Z" fill="#D4AE63"/>
<path d="M1264.9 298.788L1264.76 302.103L1268.07 302.24L1268.21 298.925L1264.9 298.788Z" fill="#D4AE63"/>
<path d="M1271.53 299.063L1271.39 302.378L1274.7 302.515L1274.84 299.2L1271.53 299.063Z" fill="#D4AE63"/>
<path d="M1268.21 298.925L1268.08 302.24L1271.39 302.378L1271.53 299.063L1268.21 298.925Z" fill="#D4AE63"/>
<path d="M1252.19 284.977L1252.05 288.292L1255.36 288.429L1255.5 285.114L1252.19 284.977Z" fill="#C4CFE1"/>
<path d="M1248.87 284.839L1248.73 288.154L1252.05 288.292L1252.19 284.977L1248.87 284.839Z" fill="#C4CFE1"/>
<path d="M1258.82 285.252L1258.68 288.567L1261.99 288.704L1262.13 285.389L1258.82 285.252Z" fill="#C4CFE1"/>
<path d="M1255.5 285.114L1255.36 288.429L1258.68 288.567L1258.82 285.252L1255.5 285.114Z" fill="#C4CFE1"/>
<path d="M1252.32 281.662L1252.19 284.977L1255.5 285.114L1255.64 281.799L1252.32 281.662Z" fill="#C4CFE1"/>
<path d="M1249.01 281.524L1248.87 284.839L1252.19 284.977L1252.32 281.661L1249.01 281.524Z" fill="#C4CFE1"/>
<path d="M1258.95 281.936L1258.82 285.252L1262.13 285.389L1262.27 282.074L1258.95 281.936Z" fill="#C4CFE1"/>
<path d="M1255.64 281.799L1255.5 285.114L1258.82 285.252L1258.95 281.937L1255.64 281.799Z" fill="#C4CFE1"/>
<path d="M1249.15 278.208L1249.01 281.524L1252.32 281.661L1252.46 278.346L1249.15 278.208Z" fill="#C4CFE1"/>
<path d="M1245.83 278.071L1245.69 281.386L1249.01 281.524L1249.15 278.209L1245.83 278.071Z" fill="#C4CFE1"/>
<path d="M1255.78 278.483L1255.64 281.799L1258.95 281.936L1259.09 278.621L1255.78 278.483Z" fill="#C4CFE1"/>
<path d="M1252.46 278.346L1252.32 281.661L1255.64 281.799L1255.78 278.483L1252.46 278.346Z" fill="#C4CFE1"/>
<path d="M1249.28 274.893L1249.15 278.208L1252.46 278.346L1252.6 275.031L1249.28 274.893Z" fill="#C4CFE1"/>
<path d="M1245.97 274.756L1245.83 278.071L1249.15 278.209L1249.28 274.893L1245.97 274.756Z" fill="#C4CFE1"/>
<path d="M1252.6 275.031L1252.46 278.346L1255.78 278.483L1255.91 275.168L1252.6 275.031Z" fill="#C4CFE1"/>
<path d="M1255.36 288.429L1255.23 291.745L1258.54 291.882L1258.68 288.567L1255.36 288.429Z" fill="#C4CFE1"/>
<path d="M1252.05 288.292L1251.91 291.607L1255.23 291.744L1255.36 288.429L1252.05 288.292Z" fill="#C4CFE1"/>
<path d="M1258.68 288.567L1258.54 291.882L1261.86 292.02L1261.99 288.704L1258.68 288.567Z" fill="#C4CFE1"/>
<path d="M1271.39 302.378L1271.25 305.693L1274.57 305.831L1274.71 302.515L1271.39 302.378Z" fill="#D4AE63"/>
<path d="M1268.08 302.24L1267.94 305.556L1271.25 305.693L1271.39 302.378L1268.08 302.24Z" fill="#D4AE63"/>
<path d="M1274.71 302.515L1274.57 305.831L1277.88 305.968L1278.02 302.653L1274.71 302.515Z" fill="#D4AE63"/>
<path d="M1274.57 305.831L1274.43 309.146L1277.75 309.283L1277.88 305.968L1274.57 305.831Z" fill="#D4AE63"/>
<path d="M1271.25 305.693L1271.12 309.008L1274.43 309.146L1274.57 305.831L1271.25 305.693Z" fill="#D4AE63"/>
<path d="M1277.75 309.284L1277.61 312.599L1280.92 312.736L1281.06 309.421L1277.75 309.284Z" fill="#D4AE63"/>
<path d="M1274.43 309.146L1274.29 312.461L1277.61 312.599L1277.75 309.283L1274.43 309.146Z" fill="#D4AE63"/>
<path d="M1268.49 292.294L1268.35 295.61L1271.67 295.747L1271.8 292.432L1268.49 292.294Z" fill="#D4AE63"/>
<path d="M1261.86 292.019L1261.72 295.335L1265.03 295.472L1265.17 292.157L1261.86 292.019Z" fill="#D4AE63"/>
<path d="M1245.69 281.386L1245.56 284.702L1248.87 284.839L1249.01 281.524L1245.69 281.386Z" fill="#C4CFE1"/>
<path d="M1268.35 295.61L1268.21 298.925L1271.53 299.063L1271.67 295.748L1268.35 295.61Z" fill="#D4AE63"/>
<path d="M1277.88 305.968L1277.75 309.283L1281.06 309.421L1281.2 306.105L1277.88 305.968Z" fill="#D4AE63"/>
<path d="M1235.06 297.55L1234.92 300.865L1238.24 301.003L1238.37 297.688L1235.06 297.55Z" fill="#D4AE63"/>
<path d="M1231.61 300.728L1231.47 304.043L1234.79 304.18L1234.92 300.865L1231.61 300.728Z" fill="#D4AE63"/>
<path d="M1238.37 297.688L1238.24 301.003L1241.55 301.14L1241.69 297.825L1238.37 297.688Z" fill="#D4AE63"/>
<path d="M1237.96 307.633L1237.83 310.949L1241.14 311.086L1241.28 307.771L1237.96 307.633Z" fill="#D4AE63"/>
<path d="M1254.54 308.321L1254.4 311.636L1257.72 311.774L1257.85 308.459L1254.54 308.321Z" fill="#D4AE63"/>
<path d="M1250.81 318.129L1250.67 321.444L1253.99 321.582L1254.13 318.266L1250.81 318.129Z" fill="#D4AE63"/>
<path d="M1254.26 314.951L1254.13 318.266L1257.44 318.404L1257.58 315.089L1254.26 314.951Z" fill="#D4AE63"/>
<path d="M1254.4 311.636L1254.26 314.951L1257.58 315.089L1257.72 311.774L1254.4 311.636Z" fill="#D4AE63"/>
<path d="M1251.22 308.183L1251.09 311.499L1254.4 311.636L1254.54 308.321L1251.22 308.183Z" fill="#D4AE63"/>
<path d="M1251.36 304.868L1251.22 308.183L1254.54 308.321L1254.68 305.005L1251.36 304.868Z" fill="#D4AE63"/>
<path d="M1215.31 293.41L1215.17 296.725L1218.48 296.862L1218.62 293.547L1215.31 293.41Z" fill="#D4AE63"/>
<path d="M1218.76 290.232L1218.62 293.547L1221.94 293.685L1222.07 290.369L1218.76 290.232Z" fill="#D4AE63"/>
<path d="M1218.9 286.917L1218.76 290.232L1222.07 290.369L1222.21 287.054L1218.9 286.917Z" fill="#D4AE63"/>
<path d="M1215.72 283.464L1215.58 286.779L1218.9 286.917L1219.03 283.602L1215.72 283.464Z" fill="#D4AE63"/>
<path d="M1248.32 298.1L1248.18 301.415L1251.5 301.553L1251.64 298.238L1248.32 298.1Z" fill="#D4AE63"/>
<path d="M1251.64 298.237L1251.5 301.553L1254.81 301.69L1254.95 298.375L1251.64 298.237Z" fill="#D4AE63"/>
<path d="M1241.55 301.14L1241.42 304.456L1244.73 304.593L1244.87 301.278L1241.55 301.14Z" fill="#D4AE63"/>
<path d="M1244.87 301.278L1244.73 304.593L1248.05 304.731L1248.18 301.415L1244.87 301.278Z" fill="#D4AE63"/>
<path d="M1238.1 304.318L1237.96 307.633L1241.28 307.771L1241.42 304.455L1238.1 304.318Z" fill="#D4AE63"/>
<path d="M1241.42 304.455L1241.28 307.771L1244.59 307.908L1244.73 304.593L1241.42 304.455Z" fill="#D4AE63"/>
<path d="M1247.22 324.622L1247.08 327.937L1250.4 328.075L1250.54 324.76L1247.22 324.622Z" fill="#D4AE63"/>
<path d="M1224.01 323.659L1223.88 326.975L1227.19 327.112L1227.33 323.797L1224.01 323.659Z" fill="#C4CFE1"/>
<path d="M1234.51 310.811L1234.37 314.126L1237.69 314.264L1237.83 310.948L1234.51 310.811Z" fill="#D4AE63"/>
<path d="M1234.65 307.496L1234.51 310.811L1237.82 310.949L1237.96 307.633L1234.65 307.496Z" fill="#D4AE63"/>
<path d="M1234.37 314.126L1234.24 317.441L1237.55 317.579L1237.69 314.264L1234.37 314.126Z" fill="#D4AE63"/>
<path d="M1234.23 317.441L1234.1 320.757L1237.41 320.894L1237.55 317.579L1234.23 317.441Z" fill="#D4AE63"/>
<path d="M1237.69 314.264L1237.55 317.579L1240.87 317.716L1241 314.401L1237.69 314.264Z" fill="#D4AE63"/>
<path d="M1237.83 310.948L1237.69 314.264L1241 314.401L1241.14 311.086L1237.83 310.948Z" fill="#D4AE63"/>
<path d="M1237.55 317.579L1237.41 320.894L1240.73 321.032L1240.87 317.716L1237.55 317.579Z" fill="#D4AE63"/>
<path d="M1237.41 320.894L1237.28 324.209L1240.59 324.347L1240.73 321.032L1237.41 320.894Z" fill="#D4AE63"/>
<path d="M1240.86 317.716L1240.73 321.031L1244.04 321.169L1244.18 317.854L1240.86 317.716Z" fill="#D4AE63"/>
<path d="M1240.73 321.032L1240.59 324.347L1243.91 324.485L1244.04 321.169L1240.73 321.032Z" fill="#D4AE63"/>
<path d="M1240.59 324.347L1240.45 327.662L1243.77 327.8L1243.91 324.485L1240.59 324.347Z" fill="#D4AE63"/>
<path d="M1185.88 282.226L1186.02 278.911L1189.34 279.048L1189.2 282.364L1185.88 282.226Z" fill="#C4CFE1"/>
<path d="M1185.74 285.542L1185.88 282.226L1189.2 282.364L1189.06 285.679L1185.74 285.542Z" fill="#C4CFE1"/>
<path d="M1185.61 288.857L1185.74 285.542L1189.06 285.679L1188.92 288.994L1185.61 288.857Z" fill="#C4CFE1"/>
<path d="M1192.51 282.501L1192.65 279.186L1195.97 279.323L1195.83 282.639L1192.51 282.501Z" fill="#C4CFE1"/>
<path d="M1192.37 285.817L1192.51 282.501L1195.83 282.639L1195.69 285.954L1192.37 285.817Z" fill="#C4CFE1"/>
<path d="M1192.24 289.132L1192.37 285.817L1195.69 285.954L1195.55 289.269L1192.24 289.132Z" fill="#C4CFE1"/>
<path d="M1189.06 285.679L1189.2 282.364L1192.51 282.502L1192.37 285.817L1189.06 285.679Z" fill="#C4CFE1"/>
<path d="M1188.92 288.994L1189.06 285.679L1192.37 285.816L1192.24 289.132L1188.92 288.994Z" fill="#C4CFE1"/>
<path d="M1188.78 292.309L1188.92 288.994L1192.24 289.132L1192.1 292.447L1188.78 292.309Z" fill="#C4CFE1"/>
<path d="M1188.65 295.625L1188.51 298.94L1191.82 299.078L1191.96 295.762L1188.65 295.625Z" fill="#D4AE63"/>
<path d="M1191.82 299.078L1191.96 295.762L1195.28 295.9L1195.14 299.215L1191.82 299.078Z" fill="#D4AE63"/>
<path d="M1191.96 295.762L1192.1 292.447L1195.41 292.584L1195.28 295.9L1191.96 295.762Z" fill="#D4AE63"/>
<path d="M1189.2 282.364L1189.33 279.048L1192.65 279.186L1192.51 282.501L1189.2 282.364Z" fill="#C4CFE1"/>
<path d="M1209.23 279.874L1209.36 276.558L1212.68 276.696L1212.54 280.011L1209.23 279.874Z" fill="#D4AE63"/>
<path d="M1209.09 283.189L1209.23 279.873L1212.54 280.011L1212.4 283.326L1209.09 283.189Z" fill="#D4AE63"/>
<path d="M1215.86 280.148L1215.99 276.833L1219.31 276.971L1219.17 280.286L1215.86 280.148Z" fill="#D4AE63"/>
<path d="M1215.72 283.464L1215.86 280.148L1219.17 280.286L1219.03 283.601L1215.72 283.464Z" fill="#D4AE63"/>
<path d="M1219.03 283.601L1219.17 280.286L1222.49 280.424L1222.35 283.739L1219.03 283.601Z" fill="#D4AE63"/>
<path d="M1218.9 286.917L1219.03 283.602L1222.35 283.739L1222.21 287.054L1218.9 286.917Z" fill="#D4AE63"/>
<path d="M1222.21 287.054L1222.35 283.739L1225.66 283.877L1225.53 287.192L1222.21 287.054Z" fill="#D4AE63"/>
<path d="M1222.07 290.369L1222.21 287.054L1225.53 287.192L1225.39 290.507L1222.07 290.369Z" fill="#D4AE63"/>
<path d="M1221.94 293.685L1222.07 290.369L1225.39 290.507L1225.25 293.822L1221.94 293.685Z" fill="#D4AE63"/>
<path d="M1212.4 283.326L1212.54 280.011L1215.86 280.149L1215.72 283.464L1212.4 283.326Z" fill="#D4AE63"/>
<path d="M1204.67 309.573L1204.81 306.258L1208.13 306.395L1207.99 309.711L1204.67 309.573Z" fill="#D4AE63"/>
<path d="M1211.3 309.848L1211.44 306.533L1214.76 306.67L1214.62 309.986L1211.3 309.848Z" fill="#D4AE63"/>
<path d="M1207.99 309.711L1208.13 306.396L1211.44 306.533L1211.3 309.848L1207.99 309.711Z" fill="#D4AE63"/>
<path d="M1214.62 309.986L1214.76 306.67L1218.07 306.808L1217.93 310.123L1214.62 309.986Z" fill="#D4AE63"/>
<path d="M1221.25 310.261L1221.39 306.946L1224.7 307.083L1224.56 310.398L1221.25 310.261Z" fill="#D4AE63"/>
<path d="M1217.93 310.123L1218.07 306.808L1221.39 306.946L1221.25 310.261L1217.93 310.123Z" fill="#D4AE63"/>
<path d="M1198.18 305.983L1198.32 302.668L1201.63 302.805L1201.49 306.12L1198.18 305.983Z" fill="#D4AE63"/>
<path d="M1195 302.53L1195.14 299.215L1198.45 299.353L1198.32 302.668L1195 302.53Z" fill="#D4AE63"/>
<path d="M1201.5 306.121L1201.63 302.805L1204.95 302.943L1204.81 306.258L1201.5 306.121Z" fill="#D4AE63"/>
<path d="M1201.91 296.175L1202.04 292.859L1205.36 292.997L1205.22 296.312L1201.91 296.175Z" fill="#D4AE63"/>
<path d="M1218.48 296.862L1218.62 293.547L1221.94 293.685L1221.8 297L1218.48 296.862Z" fill="#D4AE63"/>
<path d="M1211.44 306.533L1211.58 303.218L1214.89 303.355L1214.76 306.671L1211.44 306.533Z" fill="#D4AE63"/>
<path d="M1214.76 306.67L1214.89 303.355L1218.21 303.493L1218.07 306.808L1214.76 306.67Z" fill="#D4AE63"/>
<path d="M1204.95 302.943L1205.09 299.628L1208.4 299.765L1208.26 303.08L1204.95 302.943Z" fill="#D4AE63"/>
<path d="M1208.26 303.08L1208.4 299.765L1211.72 299.903L1211.58 303.218L1208.26 303.08Z" fill="#D4AE63"/>
<path d="M1201.77 299.49L1201.91 296.175L1205.22 296.313L1205.09 299.628L1201.77 299.49Z" fill="#D4AE63"/>
<path d="M1205.09 299.628L1205.22 296.312L1208.54 296.45L1208.4 299.765L1205.09 299.628Z" fill="#D4AE63"/>
<path d="M1212.54 280.011L1212.68 276.696L1215.99 276.833L1215.86 280.149L1212.54 280.011Z" fill="#D4AE63"/>
<path d="M1189.33 279.048L1189.47 275.733L1192.79 275.871L1192.65 279.186L1189.33 279.048Z" fill="#C4CFE1"/>
<path d="M1198.73 292.722L1198.87 289.407L1202.18 289.544L1202.05 292.86L1198.73 292.722Z" fill="#D4AE63"/>
<path d="M1198.59 296.037L1198.73 292.722L1202.05 292.859L1201.91 296.175L1198.59 296.037Z" fill="#D4AE63"/>
<path d="M1198.87 289.407L1199 286.092L1202.32 286.229L1202.18 289.544L1198.87 289.407Z" fill="#D4AE63"/>
<path d="M1199.01 286.092L1199.14 282.776L1202.46 282.914L1202.32 286.229L1199.01 286.092Z" fill="#D4AE63"/>
<path d="M1202.18 289.544L1202.32 286.229L1205.64 286.367L1205.5 289.682L1202.18 289.544Z" fill="#D4AE63"/>
<path d="M1202.05 292.859L1202.18 289.544L1205.5 289.682L1205.36 292.997L1202.05 292.859Z" fill="#D4AE63"/>
<path d="M1202.32 286.229L1202.46 282.914L1205.77 283.052L1205.64 286.367L1202.32 286.229Z" fill="#D4AE63"/>
<path d="M1202.46 282.914L1202.6 279.598L1205.91 279.736L1205.77 283.051L1202.46 282.914Z" fill="#D4AE63"/>
<path d="M1205.64 286.367L1205.77 283.052L1209.09 283.189L1208.95 286.504L1205.64 286.367Z" fill="#D4AE63"/>
<path d="M1205.77 283.051L1205.91 279.736L1209.23 279.873L1209.09 283.189L1205.77 283.051Z" fill="#D4AE63"/>
<path d="M1205.91 279.736L1206.05 276.421L1209.36 276.558L1209.23 279.874L1205.91 279.736Z" fill="#D4AE63"/>
<path d="M1296.37 180.538L1299.68 180.676L1299.55 183.991L1296.23 183.854L1296.37 180.538Z" fill="#C4CFE1"/>
<path d="M1293.05 180.401L1296.37 180.539L1296.23 183.854L1292.92 183.716L1293.05 180.401Z" fill="#C4CFE1"/>
<path d="M1289.74 180.263L1293.05 180.4L1292.92 183.716L1289.6 183.578L1289.74 180.263Z" fill="#C4CFE1"/>
<path d="M1296.09 187.169L1299.41 187.307L1299.27 190.622L1295.96 190.485L1296.09 187.169Z" fill="#C4CFE1"/>
<path d="M1292.78 187.031L1296.09 187.169L1295.96 190.484L1292.64 190.346L1292.78 187.031Z" fill="#C4CFE1"/>
<path d="M1289.46 186.894L1292.78 187.031L1292.64 190.347L1289.33 190.209L1289.46 186.894Z" fill="#C4CFE1"/>
<path d="M1292.92 183.716L1296.23 183.854L1296.09 187.169L1292.78 187.031L1292.92 183.716Z" fill="#C4CFE1"/>
<path d="M1289.6 183.578L1292.92 183.715L1292.78 187.031L1289.46 186.893L1289.6 183.578Z" fill="#C4CFE1"/>
<path d="M1286.29 183.441L1289.6 183.578L1289.46 186.894L1286.15 186.756L1286.29 183.441Z" fill="#C4CFE1"/>
<path d="M1282.97 183.303L1279.66 183.166L1279.52 186.481L1282.83 186.618L1282.97 183.303Z" fill="#D4AE63"/>
<path d="M1279.52 186.482L1282.83 186.619L1282.7 189.935L1279.38 189.797L1279.52 186.482Z" fill="#D4AE63"/>
<path d="M1282.83 186.619L1286.15 186.756L1286.01 190.072L1282.7 189.934L1282.83 186.619Z" fill="#D4AE63"/>
<path d="M1296.23 183.853L1299.55 183.991L1299.41 187.306L1296.09 187.168L1296.23 183.853Z" fill="#C4CFE1"/>
<path d="M1298.72 203.883L1302.04 204.02L1301.9 207.335L1298.58 207.198L1298.72 203.883Z" fill="#D4AE63"/>
<path d="M1295.41 203.745L1298.72 203.883L1298.58 207.198L1295.27 207.061L1295.41 203.745Z" fill="#D4AE63"/>
<path d="M1298.45 210.512L1301.76 210.65L1301.62 213.965L1298.31 213.828L1298.45 210.512Z" fill="#D4AE63"/>
<path d="M1295.13 210.375L1298.45 210.513L1298.31 213.828L1294.99 213.691L1295.13 210.375Z" fill="#D4AE63"/>
<path d="M1294.99 213.69L1298.31 213.828L1298.17 217.143L1294.86 217.006L1294.99 213.69Z" fill="#D4AE63"/>
<path d="M1291.68 213.553L1294.99 213.691L1294.86 217.006L1291.54 216.869L1291.68 213.553Z" fill="#D4AE63"/>
<path d="M1291.54 216.868L1294.86 217.006L1294.72 220.321L1291.4 220.184L1291.54 216.868Z" fill="#D4AE63"/>
<path d="M1288.23 216.731L1291.54 216.869L1291.4 220.184L1288.09 220.047L1288.23 216.731Z" fill="#D4AE63"/>
<path d="M1284.91 216.593L1288.23 216.731L1288.09 220.046L1284.77 219.908L1284.91 216.593Z" fill="#D4AE63"/>
<path d="M1295.27 207.06L1298.58 207.198L1298.45 210.513L1295.13 210.376L1295.27 207.06Z" fill="#D4AE63"/>
<path d="M1269.02 199.33L1272.34 199.467L1272.2 202.782L1268.88 202.645L1269.02 199.33Z" fill="#D4AE63"/>
<path d="M1268.75 205.959L1272.06 206.097L1271.92 209.412L1268.61 209.275L1268.75 205.959Z" fill="#D4AE63"/>
<path d="M1268.88 202.644L1272.2 202.782L1272.06 206.097L1268.75 205.96L1268.88 202.644Z" fill="#D4AE63"/>
<path d="M1268.61 209.276L1271.93 209.413L1271.79 212.728L1268.47 212.591L1268.61 209.276Z" fill="#D4AE63"/>
<path d="M1268.33 215.906L1271.65 216.043L1271.51 219.358L1268.2 219.221L1268.33 215.906Z" fill="#D4AE63"/>
<path d="M1268.47 212.591L1271.79 212.728L1271.65 216.043L1268.33 215.906L1268.47 212.591Z" fill="#D4AE63"/>
<path d="M1272.61 192.837L1275.93 192.974L1275.79 196.289L1272.47 196.152L1272.61 192.837Z" fill="#D4AE63"/>
<path d="M1276.07 189.659L1279.38 189.796L1279.24 193.111L1275.93 192.974L1276.07 189.659Z" fill="#D4AE63"/>
<path d="M1272.47 196.152L1275.79 196.289L1275.65 199.604L1272.34 199.467L1272.47 196.152Z" fill="#D4AE63"/>
<path d="M1282.42 196.564L1285.74 196.701L1285.6 200.017L1282.28 199.879L1282.42 196.564Z" fill="#D4AE63"/>
<path d="M1281.73 213.141L1285.05 213.279L1284.91 216.594L1281.6 216.456L1281.73 213.141Z" fill="#D4AE63"/>
<path d="M1272.06 206.098L1275.38 206.235L1275.24 209.55L1271.93 209.413L1272.06 206.098Z" fill="#D4AE63"/>
<path d="M1271.92 209.413L1275.24 209.55L1275.1 212.866L1271.79 212.728L1271.92 209.413Z" fill="#D4AE63"/>
<path d="M1275.65 199.605L1278.97 199.742L1278.83 203.057L1275.52 202.92L1275.65 199.605Z" fill="#D4AE63"/>
<path d="M1275.52 202.92L1278.83 203.057L1278.69 206.372L1275.38 206.235L1275.52 202.92Z" fill="#D4AE63"/>
<path d="M1279.11 196.427L1282.42 196.564L1282.28 199.879L1278.97 199.742L1279.11 196.427Z" fill="#D4AE63"/>
<path d="M1278.97 199.742L1282.28 199.879L1282.15 203.195L1278.83 203.057L1278.97 199.742Z" fill="#D4AE63"/>
<path d="M1298.58 207.197L1301.9 207.335L1301.76 210.65L1298.45 210.513L1298.58 207.197Z" fill="#D4AE63"/>
<path d="M1299.55 183.991L1302.86 184.129L1302.72 187.444L1299.41 187.307L1299.55 183.991Z" fill="#C4CFE1"/>
<path d="M1285.87 193.387L1289.19 193.524L1289.05 196.84L1285.74 196.702L1285.87 193.387Z" fill="#D4AE63"/>
<path d="M1282.56 193.249L1285.87 193.386L1285.74 196.701L1282.42 196.564L1282.56 193.249Z" fill="#D4AE63"/>
<path d="M1289.19 193.524L1292.5 193.662L1292.37 196.977L1289.05 196.839L1289.19 193.524Z" fill="#D4AE63"/>
<path d="M1292.5 193.661L1295.82 193.799L1295.68 197.114L1292.37 196.976L1292.5 193.661Z" fill="#D4AE63"/>
<path d="M1289.05 196.839L1292.37 196.977L1292.23 200.292L1288.91 200.154L1289.05 196.839Z" fill="#D4AE63"/>
<path d="M1285.74 196.702L1289.05 196.84L1288.91 200.155L1285.6 200.017L1285.74 196.702Z" fill="#D4AE63"/>
<path d="M1292.37 196.977L1295.68 197.115L1295.54 200.43L1292.23 200.292L1292.37 196.977Z" fill="#D4AE63"/>
<path d="M1295.68 197.114L1299 197.252L1298.86 200.567L1295.54 200.429L1295.68 197.114Z" fill="#D4AE63"/>
<path d="M1292.23 200.292L1295.54 200.43L1295.41 203.745L1292.09 203.607L1292.23 200.292Z" fill="#D4AE63"/>
<path d="M1295.54 200.429L1298.86 200.567L1298.72 203.882L1295.41 203.745L1295.54 200.429Z" fill="#D4AE63"/>
<path d="M1298.86 200.568L1302.17 200.705L1302.04 204.02L1298.72 203.883L1298.86 200.568Z" fill="#D4AE63"/>
<path d="M1293.34 253.475L1296.66 253.612L1296.52 256.927L1293.21 256.79L1293.34 253.475Z" fill="#C4CFE1"/>
<path d="M1290.03 253.337L1293.34 253.475L1293.21 256.79L1289.89 256.652L1290.03 253.337Z" fill="#C4CFE1"/>
<path d="M1286.71 253.199L1290.03 253.337L1289.89 256.652L1286.58 256.515L1286.71 253.199Z" fill="#C4CFE1"/>
<path d="M1293.07 260.105L1296.38 260.242L1296.25 263.558L1292.93 263.42L1293.07 260.105Z" fill="#C4CFE1"/>
<path d="M1289.75 259.967L1293.07 260.105L1292.93 263.42L1289.62 263.283L1289.75 259.967Z" fill="#C4CFE1"/>
<path d="M1286.44 259.83L1289.75 259.967L1289.62 263.283L1286.3 263.145L1286.44 259.83Z" fill="#C4CFE1"/>
<path d="M1289.89 256.652L1293.21 256.79L1293.07 260.105L1289.75 259.968L1289.89 256.652Z" fill="#C4CFE1"/>
<path d="M1286.58 256.515L1289.89 256.652L1289.75 259.968L1286.44 259.83L1286.58 256.515Z" fill="#C4CFE1"/>
<path d="M1283.26 256.377L1286.58 256.515L1286.44 259.83L1283.12 259.692L1283.26 256.377Z" fill="#C4CFE1"/>
<path d="M1279.94 256.24L1276.63 256.102L1276.49 259.417L1279.81 259.555L1279.94 256.24Z" fill="#D4AE63"/>
<path d="M1276.49 259.417L1279.81 259.555L1279.67 262.87L1276.35 262.733L1276.49 259.417Z" fill="#D4AE63"/>
<path d="M1279.81 259.555L1283.12 259.692L1282.99 263.008L1279.67 262.87L1279.81 259.555Z" fill="#D4AE63"/>
<path d="M1293.21 256.79L1296.52 256.927L1296.38 260.242L1293.07 260.105L1293.21 256.79Z" fill="#C4CFE1"/>
<path d="M1295.7 276.819L1299.01 276.956L1298.87 280.271L1295.56 280.134L1295.7 276.819Z" fill="#D4AE63"/>
<path d="M1292.38 276.681L1295.7 276.819L1295.56 280.134L1292.24 279.996L1292.38 276.681Z" fill="#D4AE63"/>
<path d="M1295.42 283.449L1298.74 283.587L1298.6 286.902L1295.28 286.764L1295.42 283.449Z" fill="#D4AE63"/>
<path d="M1292.11 283.312L1295.42 283.449L1295.28 286.764L1291.97 286.627L1292.11 283.312Z" fill="#D4AE63"/>
<path d="M1291.97 286.627L1295.28 286.764L1295.15 290.08L1291.83 289.942L1291.97 286.627Z" fill="#D4AE63"/>
<path d="M1288.65 286.489L1291.97 286.627L1291.83 289.942L1288.52 289.805L1288.65 286.489Z" fill="#D4AE63"/>
<path d="M1288.52 289.804L1291.83 289.942L1291.69 293.257L1288.38 293.12L1288.52 289.804Z" fill="#D4AE63"/>
<path d="M1285.2 289.667L1288.52 289.804L1288.38 293.12L1285.06 292.982L1285.2 289.667Z" fill="#D4AE63"/>
<path d="M1281.89 289.529L1285.2 289.667L1285.06 292.982L1281.75 292.845L1281.89 289.529Z" fill="#D4AE63"/>
<path d="M1292.24 279.996L1295.56 280.134L1295.42 283.449L1292.11 283.312L1292.24 279.996Z" fill="#D4AE63"/>
<path d="M1266 272.266L1269.31 272.403L1269.17 275.719L1265.86 275.581L1266 272.266Z" fill="#D4AE63"/>
<path d="M1265.72 278.896L1269.04 279.034L1268.9 282.349L1265.58 282.211L1265.72 278.896Z" fill="#D4AE63"/>
<path d="M1265.86 275.581L1269.17 275.719L1269.04 279.034L1265.72 278.896L1265.86 275.581Z" fill="#D4AE63"/>
<path d="M1265.58 282.212L1268.9 282.349L1268.76 285.664L1265.45 285.527L1265.58 282.212Z" fill="#D4AE63"/>
<path d="M1265.31 288.842L1268.62 288.979L1268.49 292.294L1265.17 292.157L1265.31 288.842Z" fill="#D4AE63"/>
<path d="M1265.45 285.527L1268.76 285.664L1268.62 288.98L1265.31 288.842L1265.45 285.527Z" fill="#D4AE63"/>
<path d="M1269.59 265.773L1272.9 265.91L1272.76 269.225L1269.45 269.088L1269.59 265.773Z" fill="#D4AE63"/>
<path d="M1273.04 262.595L1276.35 262.732L1276.22 266.048L1272.9 265.91L1273.04 262.595Z" fill="#D4AE63"/>
<path d="M1269.45 269.088L1272.76 269.226L1272.63 272.541L1269.31 272.403L1269.45 269.088Z" fill="#D4AE63"/>
<path d="M1279.39 269.501L1282.71 269.638L1282.57 272.953L1279.26 272.816L1279.39 269.501Z" fill="#D4AE63"/>
<path d="M1278.71 286.077L1282.02 286.214L1281.89 289.53L1278.57 289.392L1278.71 286.077Z" fill="#D4AE63"/>
<path d="M1288.79 283.174L1292.11 283.312L1291.97 286.627L1288.65 286.489L1288.79 283.174Z" fill="#D4AE63"/>
<path d="M1285.34 286.352L1288.65 286.489L1288.52 289.805L1285.2 289.667L1285.34 286.352Z" fill="#D4AE63"/>
<path d="M1282.02 286.214L1285.34 286.352L1285.2 289.667L1281.89 289.53L1282.02 286.214Z" fill="#D4AE63"/>
<path d="M1278.85 282.762L1282.16 282.899L1282.02 286.214L1278.71 286.077L1278.85 282.762Z" fill="#D4AE63"/>
<path d="M1275.53 282.624L1278.84 282.762L1278.71 286.077L1275.39 285.939L1275.53 282.624Z" fill="#D4AE63"/>
<path d="M1267.1 245.743L1270.41 245.88L1270.28 249.196L1266.96 249.058L1267.1 245.743Z" fill="#D4AE63"/>
<path d="M1263.64 248.921L1266.96 249.058L1266.82 252.373L1263.51 252.236L1263.64 248.921Z" fill="#D4AE63"/>
<path d="M1260.33 248.783L1263.64 248.921L1263.51 252.236L1260.19 252.098L1260.33 248.783Z" fill="#D4AE63"/>
<path d="M1257.15 245.331L1260.47 245.468L1260.33 248.783L1257.01 248.646L1257.15 245.331Z" fill="#D4AE63"/>
<path d="M1269.04 279.034L1272.35 279.171L1272.21 282.486L1268.9 282.349L1269.04 279.034Z" fill="#D4AE63"/>
<path d="M1268.9 282.349L1272.21 282.487L1272.08 285.802L1268.76 285.664L1268.9 282.349Z" fill="#D4AE63"/>
<path d="M1272.63 272.541L1275.94 272.678L1275.8 275.993L1272.49 275.856L1272.63 272.541Z" fill="#D4AE63"/>
<path d="M1272.49 275.856L1275.8 275.993L1275.67 279.309L1272.35 279.171L1272.49 275.856Z" fill="#D4AE63"/>
<path d="M1276.08 269.363L1279.4 269.501L1279.26 272.816L1275.94 272.678L1276.08 269.363Z" fill="#D4AE63"/>
<path d="M1275.94 272.678L1279.26 272.816L1279.12 276.131L1275.81 275.994L1275.94 272.678Z" fill="#D4AE63"/>
<path d="M1295.56 280.134L1298.87 280.271L1298.74 283.586L1295.42 283.449L1295.56 280.134Z" fill="#D4AE63"/>
<path d="M1296.52 256.927L1299.84 257.065L1299.7 260.38L1296.38 260.242L1296.52 256.927Z" fill="#C4CFE1"/>
<path d="M1282.85 266.323L1286.16 266.46L1286.03 269.775L1282.71 269.638L1282.85 266.323Z" fill="#D4AE63"/>
<path d="M1279.53 266.185L1282.85 266.323L1282.71 269.638L1279.4 269.5L1279.53 266.185Z" fill="#D4AE63"/>
<path d="M1286.16 266.46L1289.48 266.598L1289.34 269.913L1286.03 269.775L1286.16 266.46Z" fill="#D4AE63"/>
<path d="M1289.48 266.598L1292.79 266.735L1292.66 270.05L1289.34 269.913L1289.48 266.598Z" fill="#D4AE63"/>
<path d="M1286.03 269.776L1289.34 269.913L1289.2 273.228L1285.89 273.091L1286.03 269.776Z" fill="#D4AE63"/>
<path d="M1282.71 269.638L1286.03 269.776L1285.89 273.091L1282.57 272.953L1282.71 269.638Z" fill="#D4AE63"/>
<path d="M1289.34 269.913L1292.66 270.051L1292.52 273.366L1289.2 273.229L1289.34 269.913Z" fill="#D4AE63"/>
<path d="M1292.66 270.051L1295.97 270.188L1295.83 273.503L1292.52 273.366L1292.66 270.051Z" fill="#D4AE63"/>
<path d="M1289.2 273.228L1292.52 273.366L1292.38 276.681L1289.07 276.544L1289.2 273.228Z" fill="#D4AE63"/>
<path d="M1292.52 273.366L1295.83 273.503L1295.7 276.819L1292.38 276.681L1292.52 273.366Z" fill="#D4AE63"/>
<path d="M1295.83 273.503L1299.15 273.641L1299.01 276.956L1295.7 276.819L1295.83 273.503Z" fill="#D4AE63"/>
<path d="M1258.39 215.493L1255.07 215.356L1254.94 218.671L1258.25 218.808L1258.39 215.493Z" fill="#C4CFE1"/>
<path d="M1261.7 215.631L1258.39 215.494L1258.25 218.809L1261.57 218.946L1261.7 215.631Z" fill="#C4CFE1"/>
<path d="M1265.02 215.768L1261.7 215.631L1261.57 218.946L1264.88 219.084L1265.02 215.768Z" fill="#C4CFE1"/>
<path d="M1258.11 222.124L1254.8 221.986L1254.66 225.301L1257.98 225.439L1258.11 222.124Z" fill="#C4CFE1"/>
<path d="M1261.43 222.261L1258.11 222.124L1257.98 225.439L1261.29 225.576L1261.43 222.261Z" fill="#C4CFE1"/>
<path d="M1264.74 222.399L1261.43 222.261L1261.29 225.576L1264.61 225.714L1264.74 222.399Z" fill="#C4CFE1"/>
<path d="M1261.57 218.946L1258.25 218.808L1258.11 222.124L1261.43 222.261L1261.57 218.946Z" fill="#C4CFE1"/>
<path d="M1264.88 219.084L1261.57 218.946L1261.43 222.261L1264.74 222.399L1264.88 219.084Z" fill="#C4CFE1"/>
<path d="M1268.2 219.221L1264.88 219.083L1264.74 222.399L1268.06 222.536L1268.2 219.221Z" fill="#C4CFE1"/>
<path d="M1271.51 219.359L1274.83 219.496L1274.69 222.811L1271.38 222.674L1271.51 219.359Z" fill="#D4AE63"/>
<path d="M1274.69 222.811L1271.37 222.674L1271.24 225.989L1274.55 226.126L1274.69 222.811Z" fill="#D4AE63"/>
<path d="M1271.38 222.674L1268.06 222.536L1267.92 225.851L1271.24 225.989L1271.38 222.674Z" fill="#D4AE63"/>
<path d="M1258.25 218.808L1254.94 218.671L1254.8 221.986L1258.11 222.124L1258.25 218.808Z" fill="#C4CFE1"/>
<path d="M1254.11 238.562L1250.79 238.425L1250.66 241.74L1253.97 241.877L1254.11 238.562Z" fill="#D4AE63"/>
<path d="M1257.43 238.7L1254.11 238.562L1253.97 241.877L1257.29 242.015L1257.43 238.7Z" fill="#D4AE63"/>
<path d="M1253.84 245.193L1250.52 245.055L1250.38 248.371L1253.7 248.508L1253.84 245.193Z" fill="#D4AE63"/>
<path d="M1257.15 245.33L1253.84 245.193L1253.7 248.508L1257.01 248.646L1257.15 245.33Z" fill="#D4AE63"/>
<path d="M1257.01 248.646L1253.7 248.508L1253.56 251.823L1256.88 251.961L1257.01 248.646Z" fill="#D4AE63"/>
<path d="M1260.33 248.783L1257.01 248.646L1256.88 251.961L1260.19 252.098L1260.33 248.783Z" fill="#D4AE63"/>
<path d="M1260.19 252.099L1256.88 251.962L1256.74 255.277L1260.05 255.415L1260.19 252.099Z" fill="#D4AE63"/>
<path d="M1263.51 252.237L1260.19 252.099L1260.05 255.415L1263.37 255.552L1263.51 252.237Z" fill="#D4AE63"/>
<path d="M1266.82 252.374L1263.51 252.237L1263.37 255.552L1266.68 255.69L1266.82 252.374Z" fill="#D4AE63"/>
<path d="M1257.29 242.015L1253.97 241.878L1253.84 245.193L1257.15 245.33L1257.29 242.015Z" fill="#D4AE63"/>
<path d="M1284.09 236.485L1280.77 236.347L1280.63 239.662L1283.95 239.8L1284.09 236.485Z" fill="#D4AE63"/>
<path d="M1283.81 243.115L1280.5 242.978L1280.36 246.293L1283.67 246.431L1283.81 243.115Z" fill="#D4AE63"/>
<path d="M1283.95 239.8L1280.63 239.662L1280.5 242.978L1283.81 243.115L1283.95 239.8Z" fill="#D4AE63"/>
<path d="M1283.67 246.43L1280.36 246.293L1280.22 249.608L1283.54 249.746L1283.67 246.43Z" fill="#D4AE63"/>
<path d="M1283.4 253.062L1280.08 252.925L1279.95 256.24L1283.26 256.377L1283.4 253.062Z" fill="#D4AE63"/>
<path d="M1283.54 249.746L1280.22 249.608L1280.08 252.923L1283.4 253.061L1283.54 249.746Z" fill="#D4AE63"/>
<path d="M1281.05 229.717L1277.73 229.579L1277.59 232.895L1280.91 233.032L1281.05 229.717Z" fill="#D4AE63"/>
<path d="M1277.87 226.264L1274.55 226.127L1274.41 229.442L1277.73 229.579L1277.87 226.264Z" fill="#D4AE63"/>
<path d="M1280.91 233.032L1277.59 232.895L1277.45 236.21L1280.77 236.347L1280.91 233.032Z" fill="#D4AE63"/>
<path d="M1270.96 232.619L1267.65 232.482L1267.51 235.797L1270.83 235.935L1270.96 232.619Z" fill="#D4AE63"/>
<path d="M1270.28 249.196L1266.96 249.058L1266.82 252.373L1270.14 252.511L1270.28 249.196Z" fill="#D4AE63"/>
<path d="M1280.49 242.978L1277.18 242.84L1277.04 246.156L1280.36 246.293L1280.49 242.978Z" fill="#D4AE63"/>
<path d="M1280.36 246.293L1277.04 246.156L1276.9 249.471L1280.22 249.608L1280.36 246.293Z" fill="#D4AE63"/>
<path d="M1277.45 236.21L1274.14 236.072L1274 239.388L1277.32 239.525L1277.45 236.21Z" fill="#D4AE63"/>
<path d="M1277.32 239.525L1274 239.387L1273.86 242.702L1277.18 242.84L1277.32 239.525Z" fill="#D4AE63"/>
<path d="M1274.28 232.757L1270.96 232.619L1270.82 235.935L1274.14 236.072L1274.28 232.757Z" fill="#D4AE63"/>
<path d="M1274.14 236.072L1270.83 235.935L1270.69 239.25L1274 239.387L1274.14 236.072Z" fill="#D4AE63"/>
<path d="M1253.97 241.878L1250.66 241.74L1250.52 245.055L1253.84 245.193L1253.97 241.878Z" fill="#D4AE63"/>
<path d="M1254.94 218.671L1251.62 218.533L1251.48 221.849L1254.8 221.986L1254.94 218.671Z" fill="#C4CFE1"/>
<path d="M1267.78 229.167L1264.47 229.029L1264.33 232.345L1267.65 232.482L1267.78 229.167Z" fill="#D4AE63"/>
<path d="M1271.1 229.304L1267.78 229.167L1267.65 232.482L1270.96 232.619L1271.1 229.304Z" fill="#D4AE63"/>
<path d="M1264.47 229.029L1261.15 228.892L1261.02 232.207L1264.33 232.345L1264.47 229.029Z" fill="#D4AE63"/>
<path d="M1261.15 228.892L1257.84 228.754L1257.7 232.07L1261.02 232.207L1261.15 228.892Z" fill="#D4AE63"/>
<path d="M1264.33 232.345L1261.02 232.207L1260.88 235.522L1264.19 235.66L1264.33 232.345Z" fill="#D4AE63"/>
<path d="M1267.65 232.482L1264.33 232.344L1264.19 235.66L1267.51 235.797L1267.65 232.482Z" fill="#D4AE63"/>
<path d="M1261.02 232.207L1257.7 232.069L1257.56 235.385L1260.88 235.522L1261.02 232.207Z" fill="#D4AE63"/>
<path d="M1257.7 232.069L1254.39 231.932L1254.25 235.247L1257.56 235.385L1257.7 232.069Z" fill="#D4AE63"/>
<path d="M1260.88 235.522L1257.56 235.385L1257.43 238.7L1260.74 238.837L1260.88 235.522Z" fill="#D4AE63"/>
<path d="M1257.56 235.385L1254.25 235.247L1254.11 238.562L1257.43 238.7L1257.56 235.385Z" fill="#D4AE63"/>
<path d="M1254.25 235.247L1250.93 235.11L1250.8 238.425L1254.11 238.562L1254.25 235.247Z" fill="#D4AE63"/>
<path d="M155.098 12.8187L155.235 9.50342L151.92 9.3659L151.783 12.6811L155.098 12.8187Z" fill="#C4CFE1"/>
<path d="M154.961 16.1341L155.099 12.8188L151.783 12.6813L151.646 15.9966L154.961 16.1341Z" fill="#C4CFE1"/>
<path d="M154.824 19.4493L154.961 16.134L151.646 15.9965L151.509 19.3118L154.824 19.4493Z" fill="#C4CFE1"/>
<path d="M148.468 12.5435L148.605 9.22827L145.29 9.09075L145.153 12.406L148.468 12.5435Z" fill="#C4CFE1"/>
<path d="M148.331 15.8592L148.469 12.5439L145.154 12.4064L145.016 15.7217L148.331 15.8592Z" fill="#C4CFE1"/>
<path d="M148.193 19.1741L148.331 15.8589L145.015 15.7214L144.878 19.0366L148.193 19.1741Z" fill="#C4CFE1"/>
<path d="M151.646 15.9966L151.784 12.6814L148.468 12.5439L148.331 15.8591L151.646 15.9966Z" fill="#C4CFE1"/>
<path d="M151.509 19.3118L151.646 15.9966L148.331 15.8591L148.194 19.1743L151.509 19.3118Z" fill="#C4CFE1"/>
<path d="M151.372 22.627L151.509 19.3118L148.194 19.1742L148.057 22.4895L151.372 22.627Z" fill="#C4CFE1"/>
<path d="M151.234 25.9424L151.096 29.2577L147.781 29.1202L147.918 25.8049L151.234 25.9424Z" fill="#D4AE63"/>
<path d="M147.78 29.1202L147.918 25.8049L144.603 25.6674L144.465 28.9827L147.78 29.1202Z" fill="#D4AE63"/>
<path d="M147.919 25.8045L148.056 22.4893L144.741 22.3517L144.603 25.667L147.919 25.8045Z" fill="#D4AE63"/>
<path d="M151.784 12.681L151.922 9.36572L148.607 9.2282L148.469 12.5435L151.784 12.681Z" fill="#C4CFE1"/>
<path d="M132.029 8.54084L132.167 5.22559L128.851 5.08807L128.714 8.40332L132.029 8.54084Z" fill="#D4AE63"/>
<path d="M131.892 11.856L132.029 8.54077L128.714 8.40325L128.577 11.7185L131.892 11.856Z" fill="#D4AE63"/>
<path d="M125.399 8.26568L125.537 4.95044L122.221 4.81292L122.084 8.12816L125.399 8.26568Z" fill="#D4AE63"/>
<path d="M125.262 11.5809L125.399 8.26562L122.084 8.12811L121.947 11.4433L125.262 11.5809Z" fill="#D4AE63"/>
<path d="M121.947 11.4434L122.084 8.12817L118.769 7.99066L118.632 11.3059L121.947 11.4434Z" fill="#D4AE63"/>
<path d="M121.809 14.7588L121.946 11.4436L118.631 11.3061L118.494 14.6213L121.809 14.7588Z" fill="#D4AE63"/>
<path d="M118.494 14.6214L118.631 11.3062L115.316 11.1686L115.179 14.4839L118.494 14.6214Z" fill="#D4AE63"/>
<path d="M118.357 17.9366L118.494 14.6213L115.179 14.4838L115.041 17.7991L118.357 17.9366Z" fill="#D4AE63"/>
<path d="M118.218 21.2518L118.356 17.9365L115.041 17.799L114.903 21.1142L118.218 21.2518Z" fill="#D4AE63"/>
<path d="M128.577 11.7186L128.714 8.40332L125.399 8.2658L125.262 11.5811L128.577 11.7186Z" fill="#D4AE63"/>
<path d="M134.108 38.5154L134.246 35.2002L130.93 35.0627L130.793 38.3779L134.108 38.5154Z" fill="#D4AE63"/>
<path d="M127.476 38.2405L127.614 34.9253L124.299 34.7878L124.161 38.103L127.476 38.2405Z" fill="#D4AE63"/>
<path d="M130.792 38.378L130.93 35.0627L127.614 34.9252L127.477 38.2405L130.792 38.378Z" fill="#D4AE63"/>
<path d="M124.162 38.1028L124.3 34.7876L120.985 34.6501L120.847 37.9653L124.162 38.1028Z" fill="#D4AE63"/>
<path d="M117.531 37.8279L117.668 34.5127L114.353 34.3752L114.216 37.6904L117.531 37.8279Z" fill="#D4AE63"/>
<path d="M120.846 37.9654L120.983 34.6501L117.668 34.5126L117.531 37.8279L120.846 37.9654Z" fill="#D4AE63"/>
<path d="M140.875 35.4754L141.013 32.1602L137.697 32.0226L137.56 35.3379L140.875 35.4754Z" fill="#D4AE63"/>
<path d="M144.327 32.2977L144.465 28.9824L141.15 28.8449L141.012 32.1602L144.327 32.2977Z" fill="#D4AE63"/>
<path d="M137.56 35.3377L137.698 32.0225L134.383 31.8849L134.245 35.2002L137.56 35.3377Z" fill="#D4AE63"/>
<path d="M137.973 25.3922L138.11 22.0769L134.795 21.9394L134.658 25.2546L137.973 25.3922Z" fill="#D4AE63"/>
<path d="M121.397 24.7044L121.534 21.3892L118.219 21.2516L118.081 24.5669L121.397 24.7044Z" fill="#D4AE63"/>
<path d="M127.614 34.9253L127.752 31.6101L124.437 31.4726L124.299 34.7878L127.614 34.9253Z" fill="#D4AE63"/>
<path d="M124.299 34.7879L124.437 31.4727L121.121 31.3351L120.984 34.6504L124.299 34.7879Z" fill="#D4AE63"/>
<path d="M134.383 31.8853L134.52 28.5701L131.205 28.4326L131.067 31.7478L134.383 31.8853Z" fill="#D4AE63"/>
<path d="M131.068 31.7476L131.205 28.4324L127.89 28.2949L127.752 31.6101L131.068 31.7476Z" fill="#D4AE63"/>
<path d="M137.835 28.7076L137.972 25.3923L134.657 25.2548L134.519 28.5701L137.835 28.7076Z" fill="#D4AE63"/>
<path d="M134.521 28.5699L134.658 25.2546L131.343 25.1171L131.205 28.4324L134.521 28.5699Z" fill="#D4AE63"/>
<path d="M128.715 8.40338L128.853 5.08813L125.537 4.95062L125.4 8.26586L128.715 8.40338Z" fill="#D4AE63"/>
<path d="M151.921 9.36603L152.059 6.05078L148.743 5.91326L148.606 9.22851L151.921 9.36603Z" fill="#C4CFE1"/>
<path d="M141.426 22.2144L141.563 18.8992L138.248 18.7617L138.111 22.0769L141.426 22.2144Z" fill="#D4AE63"/>
<path d="M141.288 25.5296L141.425 22.2144L138.11 22.0768L137.973 25.3921L141.288 25.5296Z" fill="#D4AE63"/>
<path d="M141.563 18.8992L141.7 15.584L138.385 15.4465L138.247 18.7617L141.563 18.8992Z" fill="#D4AE63"/>
<path d="M141.7 15.584L141.837 12.2688L138.522 12.1313L138.385 15.4465L141.7 15.584Z" fill="#D4AE63"/>
<path d="M138.247 18.7618L138.384 15.4465L135.069 15.309L134.932 18.6243L138.247 18.7618Z" fill="#D4AE63"/>
<path d="M138.11 22.0767L138.247 18.7615L134.932 18.624L134.794 21.9392L138.11 22.0767Z" fill="#D4AE63"/>
<path d="M138.385 15.4466L138.522 12.1313L135.207 11.9938L135.07 15.3091L138.385 15.4466Z" fill="#D4AE63"/>
<path d="M138.523 12.1309L138.661 8.81567L135.345 8.67816L135.208 11.9934L138.523 12.1309Z" fill="#D4AE63"/>
<path d="M135.07 15.3089L135.208 11.9937L131.892 11.8561L131.755 15.1714L135.07 15.3089Z" fill="#D4AE63"/>
<path d="M135.208 11.9935L135.346 8.67822L132.03 8.5407L131.893 11.856L135.208 11.9935Z" fill="#D4AE63"/>
<path d="M135.345 8.67829L135.482 5.36304L132.167 5.22552L132.03 8.54077L135.345 8.67829Z" fill="#D4AE63"/>
<path d="M82.1642 9.79328L82.3018 6.47803L78.9865 6.34051L78.849 9.65576L82.1642 9.79328Z" fill="#C4CFE1"/>
<path d="M82.0261 13.1087L82.1636 9.79346L78.8483 9.65594L78.7108 12.9712L82.0261 13.1087Z" fill="#C4CFE1"/>
<path d="M81.8888 16.4239L82.0264 13.1086L78.7111 12.9711L78.5736 16.2864L81.8888 16.4239Z" fill="#C4CFE1"/>
<path d="M75.5329 9.51812L75.6704 6.20288L72.3552 6.06536L72.2176 9.3806L75.5329 9.51812Z" fill="#C4CFE1"/>
<path d="M75.3957 12.8338L75.5332 9.51855L72.218 9.38104L72.0804 12.6963L75.3957 12.8338Z" fill="#C4CFE1"/>
<path d="M75.2575 16.149L75.395 12.8337L72.0798 12.6962L71.9423 16.0115L75.2575 16.149Z" fill="#C4CFE1"/>
<path d="M78.7101 12.9712L78.8477 9.65601L75.5324 9.51849L75.3949 12.8337L78.7101 12.9712Z" fill="#C4CFE1"/>
<path d="M78.5729 16.2864L78.7104 12.9712L75.3952 12.8337L75.2577 16.1489L78.5729 16.2864Z" fill="#C4CFE1"/>
<path d="M78.4362 19.6016L78.5737 16.2864L75.2585 16.1489L75.121 19.4641L78.4362 19.6016Z" fill="#C4CFE1"/>
<path d="M78.2984 22.917L78.1609 26.2323L74.8457 26.0948L74.9832 22.7795L78.2984 22.917Z" fill="#D4AE63"/>
<path d="M74.8449 26.0948L74.9824 22.7795L71.6672 22.642L71.5297 25.9573L74.8449 26.0948Z" fill="#D4AE63"/>
<path d="M74.9831 22.7791L75.1206 19.4639L71.8054 19.3263L71.6678 22.6416L74.9831 22.7791Z" fill="#D4AE63"/>
<path d="M78.8483 9.65582L78.9858 6.34058L75.6706 6.20306L75.5331 9.5183L78.8483 9.65582Z" fill="#C4CFE1"/>
<path d="M59.0949 5.51544L59.2324 2.2002L55.9172 2.06268L55.7797 5.37792L59.0949 5.51544Z" fill="#D4AE63"/>
<path d="M58.9567 8.83063L59.0942 5.51538L55.779 5.37786L55.6415 8.69311L58.9567 8.83063Z" fill="#D4AE63"/>
<path d="M52.4636 5.24054L52.6011 1.92529L49.2858 1.78777L49.1483 5.10302L52.4636 5.24054Z" fill="#D4AE63"/>
<path d="M52.3263 8.55548L52.4639 5.24023L49.1486 5.10272L49.0111 8.41796L52.3263 8.55548Z" fill="#D4AE63"/>
<path d="M49.0109 8.41803L49.1484 5.10278L45.8332 4.96526L45.6957 8.28052L49.0109 8.41803Z" fill="#D4AE63"/>
<path d="M48.8737 11.7337L49.0112 8.41846L45.696 8.28094L45.5585 11.5962L48.8737 11.7337Z" fill="#D4AE63"/>
<path d="M45.5578 11.596L45.6953 8.28076L42.3801 8.14324L42.2425 11.4585L45.5578 11.596Z" fill="#D4AE63"/>
<path d="M45.4211 14.9112L45.5586 11.5959L42.2433 11.4584L42.1058 14.7737L45.4211 14.9112Z" fill="#D4AE63"/>
<path d="M45.2839 18.2264L45.4214 14.9111L42.1061 14.7736L41.9686 18.0889L45.2839 18.2264Z" fill="#D4AE63"/>
<path d="M55.6423 8.69318L55.7798 5.37793L52.4645 5.24041L52.327 8.55566L55.6423 8.69318Z" fill="#D4AE63"/>
<path d="M61.1721 35.4901L61.3096 32.1748L57.9943 32.0373L57.8568 35.3525L61.1721 35.4901Z" fill="#D4AE63"/>
<path d="M54.5422 35.2151L54.6797 31.8999L51.3644 31.7624L51.2269 35.0776L54.5422 35.2151Z" fill="#D4AE63"/>
<path d="M57.8566 35.3526L57.9941 32.0374L54.6789 31.8998L54.5414 35.2151L57.8566 35.3526Z" fill="#D4AE63"/>
<path d="M51.2263 35.0775L51.3638 31.7622L48.0485 31.6247L47.911 34.9399L51.2263 35.0775Z" fill="#D4AE63"/>
<path d="M44.5959 34.8026L44.7334 31.4873L41.4182 31.3498L41.2806 34.665L44.5959 34.8026Z" fill="#D4AE63"/>
<path d="M47.9108 34.94L48.0483 31.6248L44.7331 31.4872L44.5956 34.8025L47.9108 34.94Z" fill="#D4AE63"/>
<path d="M41.4186 31.3499L41.5562 28.0347L38.2409 27.8971L38.1034 31.2124L41.4186 31.3499Z" fill="#D4AE63"/>
<path d="M38.1032 31.2125L38.2407 27.8972L34.9255 27.7597L34.788 31.0749L38.1032 31.2125Z" fill="#D4AE63"/>
<path d="M31.4728 30.9373L31.6104 27.6221L28.2951 27.4846L28.1576 30.7998L31.4728 30.9373Z" fill="#D4AE63"/>
<path d="M34.7873 31.075L34.9248 27.7598L31.6096 27.6222L31.472 30.9375L34.7873 31.075Z" fill="#D4AE63"/>
<path d="M50.8137 45.0235L50.9512 41.7083L47.6359 41.5707L47.4984 44.886L50.8137 45.0235Z" fill="#C4CFE1"/>
<path d="M54.1296 45.161L54.2671 41.8457L50.9518 41.7082L50.8143 45.0234L54.1296 45.161Z" fill="#C4CFE1"/>
<path d="M44.1838 44.7484L44.3213 41.4331L41.006 41.2956L40.8685 44.6108L44.1838 44.7484Z" fill="#C4CFE1"/>
<path d="M47.4982 44.8858L47.6357 41.5706L44.3205 41.433L44.183 44.7483L47.4982 44.8858Z" fill="#C4CFE1"/>
<path d="M50.6755 48.3384L50.813 45.0232L47.4977 44.8857L47.3602 48.2009L50.6755 48.3384Z" fill="#C4CFE1"/>
<path d="M53.9914 48.4761L54.1289 45.1609L50.8137 45.0234L50.6761 48.3386L53.9914 48.4761Z" fill="#C4CFE1"/>
<path d="M44.0456 48.0635L44.1831 44.7483L40.8679 44.6108L40.7303 47.926L44.0456 48.0635Z" fill="#C4CFE1"/>
<path d="M47.361 48.201L47.4985 44.8857L44.1833 44.7482L44.0458 48.0635L47.361 48.201Z" fill="#C4CFE1"/>
<path d="M53.8542 51.7916L53.9917 48.4763L50.6764 48.3388L50.5389 51.654L53.8542 51.7916Z" fill="#C4CFE1"/>
<path d="M57.1686 51.929L57.3062 48.6138L53.9909 48.4763L53.8534 51.7915L57.1686 51.929Z" fill="#C4CFE1"/>
<path d="M47.2228 51.5167L47.3604 48.2014L44.0451 48.0639L43.9076 51.3791L47.2228 51.5167Z" fill="#C4CFE1"/>
<path d="M50.5388 51.6541L50.6763 48.3389L47.361 48.2013L47.2235 51.5166L50.5388 51.6541Z" fill="#C4CFE1"/>
<path d="M53.716 55.1068L53.8535 51.7915L50.5383 51.654L50.4008 54.9692L53.716 55.1068Z" fill="#C4CFE1"/>
<path d="M57.0319 55.2442L57.1694 51.929L53.8542 51.7914L53.7167 55.1067L57.0319 55.2442Z" fill="#C4CFE1"/>
<path d="M50.4015 54.9693L50.5391 51.6541L47.2238 51.5165L47.0863 54.8318L50.4015 54.9693Z" fill="#C4CFE1"/>
<path d="M47.6354 41.5706L47.7729 38.2554L44.4577 38.1179L44.3202 41.4331L47.6354 41.5706Z" fill="#C4CFE1"/>
<path d="M50.9509 41.7083L51.0884 38.3931L47.7731 38.2555L47.6356 41.5708L50.9509 41.7083Z" fill="#C4CFE1"/>
<path d="M44.321 41.4332L44.4585 38.1179L41.1432 37.9804L41.0057 41.2957L44.321 41.4332Z" fill="#C4CFE1"/>
<path d="M31.61 27.6221L31.7476 24.3069L28.4323 24.1694L28.2948 27.4846L31.61 27.6221Z" fill="#D4AE63"/>
<path d="M34.9245 27.7596L35.062 24.4443L31.7468 24.3068L31.6092 27.6221L34.9245 27.7596Z" fill="#D4AE63"/>
<path d="M28.2941 27.4847L28.4316 24.1694L25.1164 24.0319L24.9789 27.3472L28.2941 27.4847Z" fill="#D4AE63"/>
<path d="M28.4323 24.1695L28.5698 20.8542L25.2546 20.7167L25.1171 24.032L28.4323 24.1695Z" fill="#D4AE63"/>
<path d="M31.7468 24.3069L31.8843 20.9917L28.569 20.8542L28.4315 24.1694L31.7468 24.3069Z" fill="#D4AE63"/>
<path d="M25.2536 20.7164L25.3911 17.4011L22.0759 17.2636L21.9383 20.5789L25.2536 20.7164Z" fill="#D4AE63"/>
<path d="M28.5695 20.8541L28.707 17.5388L25.3918 17.4013L25.2543 20.7165L28.5695 20.8541Z" fill="#D4AE63"/>
<path d="M34.5119 37.7056L34.6494 34.3904L31.3342 34.2529L31.1966 37.5681L34.5119 37.7056Z" fill="#D4AE63"/>
<path d="M41.1432 37.9805L41.2808 34.6653L37.9655 34.5278L37.828 37.843L41.1432 37.9805Z" fill="#D4AE63"/>
<path d="M57.3068 48.6136L57.4443 45.2983L54.1291 45.1608L53.9916 48.4761L57.3068 48.6136Z" fill="#C4CFE1"/>
<path d="M34.6501 34.39L34.7876 31.0747L31.4724 30.9372L31.3348 34.2524L34.6501 34.39Z" fill="#D4AE63"/>
<path d="M25.1169 24.032L25.2544 20.7168L21.9391 20.5793L21.8016 23.8945L25.1169 24.032Z" fill="#D4AE63"/>
<path d="M67.9406 32.45L68.0781 29.1348L64.7629 28.9972L64.6254 32.3125L67.9406 32.45Z" fill="#D4AE63"/>
<path d="M71.3923 29.2723L71.5298 25.957L68.2145 25.8195L68.077 29.1348L71.3923 29.2723Z" fill="#D4AE63"/>
<path d="M64.6252 32.3123L64.7627 28.9971L61.4474 28.8596L61.3099 32.1748L64.6252 32.3123Z" fill="#D4AE63"/>
<path d="M65.0373 22.3665L65.1748 19.0513L61.8596 18.9138L61.722 22.229L65.0373 22.3665Z" fill="#D4AE63"/>
<path d="M48.4611 21.679L48.5986 18.3638L45.2834 18.2263L45.1459 21.5415L48.4611 21.679Z" fill="#D4AE63"/>
<path d="M52.1882 11.8712L52.3257 8.55591L49.0104 8.41839L48.8729 11.7336L52.1882 11.8712Z" fill="#D4AE63"/>
<path d="M48.7355 15.0489L48.873 11.7336L45.5578 11.5961L45.4203 14.9114L48.7355 15.0489Z" fill="#D4AE63"/>
<path d="M48.5983 18.3638L48.7358 15.0486L45.4206 14.9111L45.2831 18.2263L48.5983 18.3638Z" fill="#D4AE63"/>
<path d="M51.7761 21.8167L51.9136 18.5015L48.5983 18.3639L48.4608 21.6792L51.7761 21.8167Z" fill="#D4AE63"/>
<path d="M51.6388 25.1321L51.7764 21.8169L48.4611 21.6794L48.3236 24.9946L51.6388 25.1321Z" fill="#D4AE63"/>
<path d="M87.694 36.5904L87.8315 33.2751L84.5163 33.1376L84.3788 36.4529L87.694 36.5904Z" fill="#D4AE63"/>
<path d="M84.2414 39.7681L84.3789 36.4529L81.0637 36.3154L80.9261 39.6306L84.2414 39.7681Z" fill="#D4AE63"/>
<path d="M84.1032 43.0833L84.2407 39.7681L80.9255 39.6305L80.788 42.9458L84.1032 43.0833Z" fill="#D4AE63"/>
<path d="M87.2819 46.5359L87.4194 43.2207L84.1042 43.0832L83.9667 46.3984L87.2819 46.5359Z" fill="#D4AE63"/>
<path d="M54.6789 31.9L54.8164 28.5847L51.5012 28.4472L51.3636 31.7624L54.6789 31.9Z" fill="#D4AE63"/>
<path d="M51.3635 31.7625L51.501 28.4473L48.1857 28.3097L48.0482 31.625L51.3635 31.7625Z" fill="#D4AE63"/>
<path d="M61.4474 28.8597L61.585 25.5444L58.2697 25.4069L58.1322 28.7222L61.4474 28.8597Z" fill="#D4AE63"/>
<path d="M58.132 28.7222L58.2695 25.407L54.9543 25.2695L54.8168 28.5847L58.132 28.7222Z" fill="#D4AE63"/>
<path d="M64.8991 25.6822L65.0366 22.3669L61.7214 22.2294L61.5839 25.5447L64.8991 25.6822Z" fill="#D4AE63"/>
<path d="M61.5846 25.5447L61.7222 22.2295L58.4069 22.092L58.2694 25.4072L61.5846 25.5447Z" fill="#D4AE63"/>
<path d="M55.7795 5.37799L55.917 2.06274L52.6017 1.92523L52.4642 5.24047L55.7795 5.37799Z" fill="#D4AE63"/>
<path d="M78.9855 6.34064L79.123 3.02539L75.8078 2.88787L75.6703 6.20312L78.9855 6.34064Z" fill="#C4CFE1"/>
<path d="M68.4899 19.189L68.6274 15.8738L65.3122 15.7363L65.1747 19.0515L68.4899 19.189Z" fill="#D4AE63"/>
<path d="M68.3532 22.5042L68.4907 19.189L65.1755 19.0514L65.038 22.3667L68.3532 22.5042Z" fill="#D4AE63"/>
<path d="M68.6271 15.8738L68.7646 12.5586L65.4494 12.4211L65.3119 15.7363L68.6271 15.8738Z" fill="#D4AE63"/>
<path d="M68.7653 12.5587L68.9028 9.24341L65.5876 9.10589L65.4501 12.4211L68.7653 12.5587Z" fill="#D4AE63"/>
<path d="M65.3127 15.7364L65.4502 12.4211L62.1349 12.2836L61.9974 15.5989L65.3127 15.7364Z" fill="#D4AE63"/>
<path d="M65.1745 19.0516L65.312 15.7363L61.9968 15.5988L61.8592 18.9141L65.1745 19.0516Z" fill="#D4AE63"/>
<path d="M65.4499 12.4212L65.5874 9.10596L62.2722 8.96844L62.1346 12.2837L65.4499 12.4212Z" fill="#D4AE63"/>
<path d="M65.5866 9.10578L65.7241 5.79053L62.4089 5.65301L62.2714 8.96826L65.5866 9.10578Z" fill="#D4AE63"/>
<path d="M62.1354 12.2838L62.2729 8.96851L58.9577 8.83099L58.8202 12.1462L62.1354 12.2838Z" fill="#D4AE63"/>
<path d="M62.2721 8.96808L62.4097 5.65283L59.0944 5.51531L58.9569 8.83056L62.2721 8.96808Z" fill="#D4AE63"/>
<path d="M62.4094 5.65289L62.5469 2.33765L59.2316 2.20013L59.0941 5.51537L62.4094 5.65289Z" fill="#D4AE63"/>
<path d="M117.117 47.7739L116.98 51.0891L113.665 50.9516L113.802 47.6363L117.117 47.7739Z" fill="#C4CFE1"/>
<path d="M117.256 44.4584L117.118 47.7737L113.803 47.6362L113.94 44.3209L117.256 44.4584Z" fill="#C4CFE1"/>
<path d="M117.394 41.1432L117.256 44.4585L113.941 44.321L114.079 41.0057L117.394 41.1432Z" fill="#C4CFE1"/>
<path d="M110.488 47.499L110.35 50.8142L107.035 50.6767L107.172 47.3614L110.488 47.499Z" fill="#C4CFE1"/>
<path d="M110.626 44.1833L110.488 47.4985L107.173 47.361L107.311 44.0458L110.626 44.1833Z" fill="#C4CFE1"/>
<path d="M110.763 40.8681L110.625 44.1833L107.31 44.0458L107.448 40.7306L110.763 40.8681Z" fill="#C4CFE1"/>
<path d="M113.941 44.3207L113.803 47.636L110.488 47.4985L110.625 44.1832L113.941 44.3207Z" fill="#C4CFE1"/>
<path d="M114.079 41.0058L113.941 44.321L110.626 44.1835L110.764 40.8683L114.079 41.0058Z" fill="#C4CFE1"/>
<path d="M114.216 37.6906L114.078 41.0059L110.763 40.8683L110.9 37.5531L114.216 37.6906Z" fill="#C4CFE1"/>
<path d="M114.354 34.3752L114.491 31.0599L111.176 30.9224L111.039 34.2377L114.354 34.3752Z" fill="#D4AE63"/>
<path d="M111.176 30.9223L111.038 34.2375L107.723 34.1L107.86 30.7848L111.176 30.9223Z" fill="#D4AE63"/>
<path d="M111.038 34.238L110.901 37.5532L107.586 37.4157L107.723 34.1005L111.038 34.238Z" fill="#D4AE63"/>
<path d="M113.804 47.6364L113.666 50.9517L110.351 50.8141L110.488 47.4989L113.804 47.6364Z" fill="#C4CFE1"/>
<path d="M93.7747 50.1264L93.6372 53.4417L90.322 53.3041L90.4595 49.9889L93.7747 50.1264Z" fill="#D4AE63"/>
<path d="M93.9119 46.8115L93.7744 50.1267L90.4592 49.9892L90.5967 46.6739L93.9119 46.8115Z" fill="#D4AE63"/>
<path d="M87.1434 49.8515L87.0059 53.1667L83.6906 53.0292L83.8281 49.714L87.1434 49.8515Z" fill="#D4AE63"/>
<path d="M87.2816 46.5363L87.144 49.8516L83.8288 49.714L83.9663 46.3988L87.2816 46.5363Z" fill="#D4AE63"/>
<path d="M83.9656 46.3986L83.8281 49.7139L80.5129 49.5764L80.6504 46.2611L83.9656 46.3986Z" fill="#D4AE63"/>
<path d="M84.1038 43.0832L83.9663 46.3984L80.6511 46.2609L80.7886 42.9457L84.1038 43.0832Z" fill="#D4AE63"/>
<path d="M80.7884 42.9457L80.6509 46.261L77.3356 46.1235L77.4731 42.8082L80.7884 42.9457Z" fill="#D4AE63"/>
<path d="M80.9266 39.6306L80.7891 42.9458L77.4738 42.8083L77.6113 39.493L80.9266 39.6306Z" fill="#D4AE63"/>
<path d="M81.0638 36.3154L80.9263 39.6306L77.611 39.4931L77.7485 36.1779L81.0638 36.3154Z" fill="#D4AE63"/>
<path d="M90.596 46.6738L90.4585 49.989L87.1432 49.8515L87.2808 46.5363L90.596 46.6738Z" fill="#D4AE63"/>
<path d="M98.3275 20.4269L98.1899 23.7422L94.8747 23.6047L95.0122 20.2894L98.3275 20.4269Z" fill="#D4AE63"/>
<path d="M91.6961 20.1518L91.5586 23.467L88.2433 23.3295L88.3809 20.0143L91.6961 20.1518Z" fill="#D4AE63"/>
<path d="M95.012 20.2892L94.8745 23.6045L91.5593 23.467L91.6968 20.1517L95.012 20.2892Z" fill="#D4AE63"/>
<path d="M88.3817 20.0143L88.2441 23.3296L84.9289 23.1921L85.0664 19.8768L88.3817 20.0143Z" fill="#D4AE63"/>
<path d="M81.7513 19.7392L81.6138 23.0544L78.2985 22.9169L78.436 19.6017L81.7513 19.7392Z" fill="#D4AE63"/>
<path d="M85.0657 19.8766L84.9282 23.1919L81.613 23.0544L81.7505 19.7391L85.0657 19.8766Z" fill="#D4AE63"/>
<path d="M104.821 24.017L104.683 27.3323L101.368 27.1948L101.505 23.8795L104.821 24.017Z" fill="#D4AE63"/>
<path d="M107.998 27.4697L107.86 30.7849L104.545 30.6474L104.683 27.3321L107.998 27.4697Z" fill="#D4AE63"/>
<path d="M101.505 23.8793L101.367 27.1946L98.0519 27.0571L98.1895 23.7418L101.505 23.8793Z" fill="#D4AE63"/>
<path d="M101.093 33.8254L100.955 37.1406L97.6398 37.0031L97.7773 33.6879L101.093 33.8254Z" fill="#D4AE63"/>
<path d="M84.5164 33.1376L84.3789 36.4529L81.0637 36.3154L81.2012 33.0001L84.5164 33.1376Z" fill="#D4AE63"/>
<path d="M91.5589 23.467L91.4214 26.7822L88.1061 26.6447L88.2437 23.3295L91.5589 23.467Z" fill="#D4AE63"/>
<path d="M88.2435 23.3295L88.106 26.6448L84.7907 26.5073L84.9282 23.192L88.2435 23.3295Z" fill="#D4AE63"/>
<path d="M98.0521 27.0571L97.9146 30.3723L94.5993 30.2348L94.7368 26.9196L98.0521 27.0571Z" fill="#D4AE63"/>
<path d="M94.7376 26.9196L94.6001 30.2349L91.2849 30.0973L91.4224 26.7821L94.7376 26.9196Z" fill="#D4AE63"/>
<path d="M101.23 30.5097L101.092 33.825L97.777 33.6874L97.9146 30.3722L101.23 30.5097Z" fill="#D4AE63"/>
<path d="M97.9149 30.3723L97.7773 33.6875L94.4621 33.55L94.5996 30.2347L97.9149 30.3723Z" fill="#D4AE63"/>
<path d="M90.4588 49.989L90.3213 53.3042L87.006 53.1667L87.1436 49.8514L90.4588 49.989Z" fill="#D4AE63"/>
<path d="M113.666 50.9516L113.529 54.2668L110.214 54.1293L110.351 50.8141L113.666 50.9516Z" fill="#C4CFE1"/>
<path d="M104.27 37.278L104.132 40.5933L100.817 40.4557L100.955 37.1405L104.27 37.278Z" fill="#D4AE63"/>
<path d="M104.407 33.9628L104.27 37.2781L100.954 37.1406L101.092 33.8253L104.407 33.9628Z" fill="#D4AE63"/>
<path d="M104.133 40.5932L103.995 43.9084L100.68 43.7709L100.817 40.4557L104.133 40.5932Z" fill="#D4AE63"/>
<path d="M103.994 43.9084L103.857 47.2236L100.542 47.0861L100.679 43.7709L103.994 43.9084Z" fill="#D4AE63"/>
<path d="M100.817 40.4557L100.68 43.771L97.3644 43.6335L97.502 40.3182L100.817 40.4557Z" fill="#D4AE63"/>
<path d="M100.954 37.1406L100.817 40.4558L97.5016 40.3183L97.6392 37.003L100.954 37.1406Z" fill="#D4AE63"/>
<path d="M100.68 43.7707L100.542 47.0859L97.2272 46.9484L97.3647 43.6332L100.68 43.7707Z" fill="#D4AE63"/>
<path d="M100.542 47.0864L100.404 50.4016L97.089 50.2641L97.2266 46.9488L100.542 47.0864Z" fill="#D4AE63"/>
<path d="M97.3646 43.6332L97.2271 46.9485L93.9118 46.811L94.0493 43.4957L97.3646 43.6332Z" fill="#D4AE63"/>
<path d="M97.2274 46.9489L97.0898 50.2642L93.7746 50.1266L93.9121 46.8114L97.2274 46.9489Z" fill="#D4AE63"/>
<path d="M97.0892 50.2639L96.9517 53.5791L93.6364 53.4416L93.7739 50.1263L97.0892 50.2639Z" fill="#D4AE63"/>
<path d="M6.63117 149.462L3.31592 149.324L3.45343 146.009L6.76868 146.146L6.63117 149.462Z" fill="#C4CFE1"/>
<path d="M9.9466 149.599L6.63135 149.461L6.76886 146.146L10.0841 146.284L9.9466 149.599Z" fill="#C4CFE1"/>
<path d="M13.261 149.737L9.9458 149.6L10.0833 146.284L13.3986 146.422L13.261 149.737Z" fill="#C4CFE1"/>
<path d="M6.90607 142.831L3.59082 142.693L3.72834 139.378L7.04358 139.515L6.90607 142.831Z" fill="#C4CFE1"/>
<path d="M10.222 142.969L6.90674 142.831L7.04425 139.516L10.3595 139.654L10.222 142.969Z" fill="#C4CFE1"/>
<path d="M13.5364 143.106L10.2212 142.969L10.3587 139.653L13.674 139.791L13.5364 143.106Z" fill="#C4CFE1"/>
<path d="M10.0838 146.284L6.76855 146.146L6.90607 142.831L10.2213 142.969L10.0838 146.284Z" fill="#C4CFE1"/>
<path d="M13.3992 146.422L10.084 146.285L10.2215 142.969L13.5367 143.107L13.3992 146.422Z" fill="#C4CFE1"/>
<path d="M16.7137 146.559L13.3984 146.422L13.536 143.106L16.8512 143.244L16.7137 146.559Z" fill="#C4CFE1"/>
<path d="M20.0288 146.697L23.3441 146.834L23.4816 143.519L20.1664 143.382L20.0288 146.697Z" fill="#D4AE63"/>
<path d="M23.4822 143.518L20.167 143.381L20.3045 140.065L23.6198 140.203L23.4822 143.518Z" fill="#D4AE63"/>
<path d="M20.1668 143.381L16.8516 143.244L16.9891 139.928L20.3043 140.066L20.1668 143.381Z" fill="#D4AE63"/>
<path d="M6.76788 146.147L3.45264 146.009L3.59015 142.694L6.9054 142.832L6.76788 146.147Z" fill="#C4CFE1"/>
<path d="M4.27814 126.117L0.962891 125.98L1.10041 122.665L4.41565 122.802L4.27814 126.117Z" fill="#D4AE63"/>
<path d="M7.59406 126.255L4.27881 126.117L4.41632 122.802L7.73157 122.939L7.59406 126.255Z" fill="#D4AE63"/>
<path d="M4.55353 119.488L1.23828 119.35L1.3758 116.035L4.69104 116.172L4.55353 119.488Z" fill="#D4AE63"/>
<path d="M7.86798 119.625L4.55273 119.487L4.69025 116.172L8.0055 116.309L7.86798 119.625Z" fill="#D4AE63"/>
<path d="M8.00617 116.31L4.69092 116.172L4.82843 112.857L8.14368 112.994L8.00617 116.31Z" fill="#D4AE63"/>
<path d="M11.3221 116.447L8.00684 116.309L8.14435 112.994L11.4596 113.131L11.3221 116.447Z" fill="#D4AE63"/>
<path d="M11.4593 113.132L8.14404 112.994L8.28156 109.679L11.5968 109.816L11.4593 113.132Z" fill="#D4AE63"/>
<path d="M14.7737 113.269L11.4585 113.131L11.596 109.816L14.9113 109.953L14.7737 113.269Z" fill="#D4AE63"/>
<path d="M18.0892 113.407L14.7739 113.269L14.9114 109.954L18.2267 110.092L18.0892 113.407Z" fill="#D4AE63"/>
<path d="M7.73126 122.94L4.41602 122.802L4.55353 119.487L7.86878 119.624L7.73126 122.94Z" fill="#D4AE63"/>
<path d="M33.9778 130.67L30.6626 130.533L30.8001 127.218L34.1154 127.355L33.9778 130.67Z" fill="#D4AE63"/>
<path d="M34.2532 124.041L30.938 123.903L31.0755 120.588L34.3908 120.725L34.2532 124.041Z" fill="#D4AE63"/>
<path d="M34.116 127.356L30.8008 127.218L30.9383 123.903L34.2535 124.04L34.116 127.356Z" fill="#D4AE63"/>
<path d="M34.39 120.724L31.0747 120.587L31.2122 117.272L34.5275 117.409L34.39 120.724Z" fill="#D4AE63"/>
<path d="M34.6653 114.094L31.3501 113.957L31.4876 110.642L34.8029 110.779L34.6653 114.094Z" fill="#D4AE63"/>
<path d="M34.5286 117.409L31.2134 117.272L31.3509 113.957L34.6661 114.094L34.5286 117.409Z" fill="#D4AE63"/>
<path d="M30.388 137.163L27.0728 137.026L27.2103 133.711L30.5255 133.848L30.388 137.163Z" fill="#D4AE63"/>
<path d="M26.9349 140.341L23.6196 140.204L23.7571 136.889L27.0724 137.026L26.9349 140.341Z" fill="#D4AE63"/>
<path d="M30.5252 133.848L27.21 133.711L27.3475 130.396L30.6627 130.533L30.5252 133.848Z" fill="#D4AE63"/>
<path d="M20.5789 133.436L17.2637 133.299L17.4012 129.983L20.7164 130.121L20.5789 133.436Z" fill="#D4AE63"/>
<path d="M21.2669 116.859L17.9517 116.721L18.0892 113.406L21.4044 113.544L21.2669 116.859Z" fill="#D4AE63"/>
<path d="M30.9373 123.902L27.6221 123.765L27.7596 120.45L31.0748 120.587L30.9373 123.902Z" fill="#D4AE63"/>
<path d="M31.0755 120.587L27.7603 120.45L27.8978 117.134L31.213 117.272L31.0755 120.587Z" fill="#D4AE63"/>
<path d="M27.3475 130.395L24.0322 130.258L24.1697 126.943L27.485 127.08L27.3475 130.395Z" fill="#D4AE63"/>
<path d="M27.4847 127.08L24.1694 126.943L24.3069 123.628L27.6222 123.765L27.4847 127.08Z" fill="#D4AE63"/>
<path d="M23.8948 133.573L20.5796 133.436L20.7171 130.121L24.0324 130.258L23.8948 133.573Z" fill="#D4AE63"/>
<path d="M24.032 130.258L20.7168 130.121L20.8543 126.805L24.1696 126.943L24.032 130.258Z" fill="#D4AE63"/>
<path d="M4.41535 122.803L1.1001 122.665L1.23761 119.35L4.55286 119.487L4.41535 122.803Z" fill="#D4AE63"/>
<path d="M3.45343 146.009L0.138184 145.871L0.275699 142.556L3.59095 142.693L3.45343 146.009Z" fill="#C4CFE1"/>
<path d="M17.1263 136.613L13.811 136.476L13.9486 133.16L17.2638 133.298L17.1263 136.613Z" fill="#D4AE63"/>
<path d="M20.4422 136.751L17.127 136.614L17.2645 133.299L20.5797 133.436L20.4422 136.751Z" fill="#D4AE63"/>
<path d="M13.8118 136.476L10.4966 136.338L10.6341 133.023L13.9493 133.161L13.8118 136.476Z" fill="#D4AE63"/>
<path d="M10.4959 136.339L7.18066 136.201L7.31818 132.886L10.6334 133.024L10.4959 136.339Z" fill="#D4AE63"/>
<path d="M13.949 133.161L10.6338 133.023L10.7713 129.708L14.0866 129.846L13.949 133.161Z" fill="#D4AE63"/>
<path d="M17.2645 133.298L13.9492 133.16L14.0867 129.845L17.402 129.983L17.2645 133.298Z" fill="#D4AE63"/>
<path d="M10.6341 133.023L7.31885 132.885L7.45636 129.57L10.7716 129.708L10.6341 133.023Z" fill="#D4AE63"/>
<path d="M7.31867 132.886L4.00342 132.748L4.14093 129.433L7.45618 129.571L7.31867 132.886Z" fill="#D4AE63"/>
<path d="M10.7713 129.708L7.45605 129.57L7.59357 126.255L10.9088 126.393L10.7713 129.708Z" fill="#D4AE63"/>
<path d="M7.45587 129.571L4.14062 129.433L4.27814 126.118L7.59339 126.255L7.45587 129.571Z" fill="#D4AE63"/>
<path d="M4.14142 129.432L0.826172 129.295L0.963687 125.98L4.27893 126.117L4.14142 129.432Z" fill="#D4AE63"/>
<path d="M9.65607 76.5255L6.34082 76.3879L6.47834 73.0727L9.79358 73.2102L9.65607 76.5255Z" fill="#C4CFE1"/>
<path d="M12.9715 76.6629L9.65625 76.5254L9.79377 73.2101L13.109 73.3477L12.9715 76.6629Z" fill="#C4CFE1"/>
<path d="M16.2874 76.8006L12.9722 76.6631L13.1097 73.3478L16.4249 73.4854L16.2874 76.8006Z" fill="#C4CFE1"/>
<path d="M9.93146 69.8951L6.61621 69.7576L6.75373 66.4423L10.069 66.5798L9.93146 69.8951Z" fill="#C4CFE1"/>
<path d="M13.2469 70.0325L9.93164 69.895L10.0692 66.5798L13.3844 66.7173L13.2469 70.0325Z" fill="#C4CFE1"/>
<path d="M16.5613 70.1702L13.2461 70.0327L13.3836 66.7175L16.6989 66.855L16.5613 70.1702Z" fill="#C4CFE1"/>
<path d="M13.1087 73.3477L9.79346 73.2102L9.93097 69.895L13.2462 70.0325L13.1087 73.3477Z" fill="#C4CFE1"/>
<path d="M16.4246 73.4852L13.1094 73.3477L13.2469 70.0324L16.5621 70.1699L16.4246 73.4852Z" fill="#C4CFE1"/>
<path d="M19.7401 73.6229L16.4248 73.4854L16.5623 70.1701L19.8776 70.3076L19.7401 73.6229Z" fill="#C4CFE1"/>
<path d="M23.0552 73.7604L26.3704 73.8979L26.5079 70.5827L23.1927 70.4451L23.0552 73.7604Z" fill="#D4AE63"/>
<path d="M26.5076 70.5826L23.1924 70.4451L23.3299 67.1298L26.6451 67.2673L26.5076 70.5826Z" fill="#D4AE63"/>
<path d="M23.1917 70.4451L19.8765 70.3076L20.014 66.9924L23.3292 67.1299L23.1917 70.4451Z" fill="#D4AE63"/>
<path d="M9.79425 73.2103L6.479 73.0728L6.61652 69.7575L9.93177 69.895L9.79425 73.2103Z" fill="#C4CFE1"/>
<path d="M7.30353 53.1815L3.98828 53.0439L4.1258 49.7287L7.44104 49.8662L7.30353 53.1815Z" fill="#D4AE63"/>
<path d="M10.619 53.3189L7.30371 53.1814L7.44123 49.8661L10.7565 50.0037L10.619 53.3189Z" fill="#D4AE63"/>
<path d="M7.57892 46.5508L4.26367 46.4133L4.40119 43.0981L7.71643 43.2356L7.57892 46.5508Z" fill="#D4AE63"/>
<path d="M10.8943 46.6883L7.5791 46.5508L7.71662 43.2355L11.0319 43.373L10.8943 46.6883Z" fill="#D4AE63"/>
<path d="M11.0316 43.3731L7.71631 43.2356L7.85382 39.9203L11.1691 40.0579L11.0316 43.3731Z" fill="#D4AE63"/>
<path d="M14.347 43.5106L11.0317 43.373L11.1693 40.0578L14.4845 40.1953L14.347 43.5106Z" fill="#D4AE63"/>
<path d="M14.4842 40.1956L11.1689 40.0581L11.3065 36.7429L14.6217 36.8804L14.4842 40.1956Z" fill="#D4AE63"/>
<path d="M17.8001 40.3331L14.4849 40.1956L14.6224 36.8803L17.9376 37.0178L17.8001 40.3331Z" fill="#D4AE63"/>
<path d="M21.1146 40.4705L17.7993 40.333L17.9368 37.0178L21.2521 37.1553L21.1146 40.4705Z" fill="#D4AE63"/>
<path d="M10.7562 50.0037L7.44092 49.8662L7.57843 46.551L10.8937 46.6885L10.7562 50.0037Z" fill="#D4AE63"/>
<path d="M37.0027 57.7342L33.6875 57.5967L33.825 54.2814L37.1403 54.4189L37.0027 57.7342Z" fill="#D4AE63"/>
<path d="M37.2781 51.1038L33.9629 50.9663L34.1004 47.6511L37.4157 47.7886L37.2781 51.1038Z" fill="#D4AE63"/>
<path d="M37.1409 54.419L33.8257 54.2815L33.9632 50.9662L37.2784 51.1038L37.1409 54.419Z" fill="#D4AE63"/>
<path d="M37.4163 47.7884L34.1011 47.6509L34.2386 44.3356L37.5538 44.4731L37.4163 47.7884Z" fill="#D4AE63"/>
<path d="M37.6907 41.1583L34.3755 41.0208L34.513 37.7055L37.8283 37.843L37.6907 41.1583Z" fill="#D4AE63"/>
<path d="M37.5535 44.4732L34.2383 44.3357L34.3758 41.0204L37.691 41.158L37.5535 44.4732Z" fill="#D4AE63"/>
<path d="M33.4129 64.2274L30.0977 64.0898L30.2352 60.7746L33.5504 60.9121L33.4129 64.2274Z" fill="#D4AE63"/>
<path d="M29.9603 67.4051L26.645 67.2676L26.7825 63.9523L30.0978 64.0898L29.9603 67.4051Z" fill="#D4AE63"/>
<path d="M33.5511 60.9119L30.2358 60.7744L30.3734 57.4592L33.6886 57.5967L33.5511 60.9119Z" fill="#D4AE63"/>
<path d="M23.6053 60.4993L20.29 60.3618L20.4276 57.0466L23.7428 57.1841L23.6053 60.4993Z" fill="#D4AE63"/>
<path d="M24.2918 43.9232L20.9766 43.7856L21.1141 40.4704L24.4293 40.6079L24.2918 43.9232Z" fill="#D4AE63"/>
<path d="M14.2088 46.8257L10.8936 46.6882L11.0311 43.373L14.3463 43.5105L14.2088 46.8257Z" fill="#D4AE63"/>
<path d="M17.6614 43.6483L14.3462 43.5107L14.4837 40.1955L17.799 40.333L17.6614 43.6483Z" fill="#D4AE63"/>
<path d="M20.9774 43.7857L17.6621 43.6482L17.7996 40.3329L21.1149 40.4705L20.9774 43.7857Z" fill="#D4AE63"/>
<path d="M24.1546 47.2383L20.8394 47.1008L20.9769 43.7856L24.2921 43.9231L24.1546 47.2383Z" fill="#D4AE63"/>
<path d="M27.4705 47.3758L24.1553 47.2383L24.2928 43.923L27.608 44.0605L27.4705 47.3758Z" fill="#D4AE63"/>
<path d="M35.9026 84.2571L32.5874 84.1196L32.7249 80.8044L36.0402 80.9419L35.9026 84.2571Z" fill="#D4AE63"/>
<path d="M39.3553 81.0794L36.04 80.9419L36.1776 77.6266L39.4928 77.7642L39.3553 81.0794Z" fill="#D4AE63"/>
<path d="M42.6712 81.2169L39.356 81.0793L39.4935 77.7641L42.8087 77.9016L42.6712 81.2169Z" fill="#D4AE63"/>
<path d="M45.8485 84.6695L42.5332 84.532L42.6707 81.2167L45.986 81.3543L45.8485 84.6695Z" fill="#D4AE63"/>
<path d="M33.9637 50.9664L30.6484 50.8289L30.786 47.5136L34.1012 47.6511L33.9637 50.9664Z" fill="#D4AE63"/>
<path d="M34.1009 47.6509L30.7856 47.5134L30.9232 44.1982L34.2384 44.3357L34.1009 47.6509Z" fill="#D4AE63"/>
<path d="M30.3729 57.4593L27.0576 57.3218L27.1951 54.0065L30.5104 54.144L30.3729 57.4593Z" fill="#D4AE63"/>
<path d="M30.511 54.1441L27.1958 54.0066L27.3333 50.6913L30.6486 50.8289L30.511 54.1441Z" fill="#D4AE63"/>
<path d="M26.9197 60.6368L23.6045 60.4993L23.742 57.184L27.0573 57.3215L26.9197 60.6368Z" fill="#D4AE63"/>
<path d="M27.0569 57.3216L23.7417 57.1841L23.8792 53.8688L27.1945 54.0064L27.0569 57.3216Z" fill="#D4AE63"/>
<path d="M7.44171 49.8663L4.12646 49.7288L4.26398 46.4135L7.57923 46.551L7.44171 49.8663Z" fill="#D4AE63"/>
<path d="M6.47882 73.0728L3.16357 72.9353L3.30109 69.6201L6.61634 69.7576L6.47882 73.0728Z" fill="#C4CFE1"/>
<path d="M20.1526 63.6773L16.8374 63.5398L16.9749 60.2245L20.2902 60.3621L20.1526 63.6773Z" fill="#D4AE63"/>
<path d="M23.4671 63.8148L20.1519 63.6772L20.2894 60.362L23.6046 60.4995L23.4671 63.8148Z" fill="#D4AE63"/>
<path d="M16.8367 63.5399L13.5215 63.4023L13.659 60.0871L16.9742 60.2246L16.8367 63.5399Z" fill="#D4AE63"/>
<path d="M13.5223 63.4024L10.207 63.2649L10.3445 59.9496L13.6598 60.0872L13.5223 63.4024Z" fill="#D4AE63"/>
<path d="M16.9739 60.2244L13.6587 60.0869L13.7962 56.7717L17.1115 56.9092L16.9739 60.2244Z" fill="#D4AE63"/>
<path d="M20.2894 60.3619L16.9741 60.2244L17.1116 56.9091L20.4269 57.0466L20.2894 60.3619Z" fill="#D4AE63"/>
<path d="M13.6595 60.0867L10.3442 59.9492L10.4818 56.634L13.797 56.7715L13.6595 60.0867Z" fill="#D4AE63"/>
<path d="M10.3436 59.9493L7.02832 59.8118L7.16584 56.4965L10.4811 56.634L10.3436 59.9493Z" fill="#D4AE63"/>
<path d="M13.7967 56.7715L10.4814 56.634L10.619 53.3188L13.9342 53.4563L13.7967 56.7715Z" fill="#D4AE63"/>
<path d="M10.4808 56.6341L7.16553 56.4966L7.30304 53.1813L10.6183 53.3189L10.4808 56.6341Z" fill="#D4AE63"/>
<path d="M7.16632 56.4966L3.85107 56.3591L3.98859 53.0439L7.30384 53.1814L7.16632 56.4966Z" fill="#D4AE63"/>
<path d="M44.611 114.507L47.9263 114.644L48.0638 111.329L44.7485 111.192L44.611 114.507Z" fill="#C4CFE1"/>
<path d="M41.2966 114.369L44.6118 114.506L44.7493 111.191L41.4341 111.054L41.2966 114.369Z" fill="#C4CFE1"/>
<path d="M37.9807 114.232L41.2959 114.369L41.4334 111.054L38.1182 110.916L37.9807 114.232Z" fill="#C4CFE1"/>
<path d="M44.8864 107.876L48.2017 108.014L48.3392 104.699L45.0239 104.561L44.8864 107.876Z" fill="#C4CFE1"/>
<path d="M41.571 107.739L44.8862 107.876L45.0237 104.561L41.7085 104.424L41.571 107.739Z" fill="#C4CFE1"/>
<path d="M38.256 107.601L41.5713 107.739L41.7088 104.424L38.3935 104.286L38.256 107.601Z" fill="#C4CFE1"/>
<path d="M41.4338 111.054L44.749 111.192L44.8865 107.876L41.5713 107.739L41.4338 111.054Z" fill="#C4CFE1"/>
<path d="M38.1179 110.916L41.4331 111.054L41.5706 107.739L38.2554 107.601L38.1179 110.916Z" fill="#C4CFE1"/>
<path d="M34.8034 110.779L38.1187 110.917L38.2562 107.601L34.9409 107.464L34.8034 110.779Z" fill="#C4CFE1"/>
<path d="M31.4871 110.641L28.1719 110.504L28.3094 107.189L31.6247 107.326L31.4871 110.641Z" fill="#D4AE63"/>
<path d="M28.3102 107.189L31.6255 107.326L31.763 104.011L28.4477 103.874L28.3102 107.189Z" fill="#D4AE63"/>
<path d="M31.6247 107.326L34.9399 107.464L35.0774 104.149L31.7622 104.011L31.6247 107.326Z" fill="#D4AE63"/>
<path d="M44.7482 111.192L48.0635 111.329L48.201 108.014L44.8857 107.876L44.7482 111.192Z" fill="#C4CFE1"/>
<path d="M48.8898 91.4379L52.2051 91.5754L52.3426 88.2602L49.0273 88.1227L48.8898 91.4379Z" fill="#D4AE63"/>
<path d="M45.5739 91.3002L48.8892 91.4377L49.0267 88.1225L45.7114 87.985L45.5739 91.3002Z" fill="#D4AE63"/>
<path d="M49.1638 84.8071L52.479 84.9446L52.6165 81.6293L49.3013 81.4918L49.1638 84.8071Z" fill="#D4AE63"/>
<path d="M45.8483 84.6696L49.1636 84.8071L49.3011 81.4919L45.9858 81.3544L45.8483 84.6696Z" fill="#D4AE63"/>
<path d="M45.9865 81.3544L49.3018 81.4919L49.4393 78.1767L46.124 78.0392L45.9865 81.3544Z" fill="#D4AE63"/>
<path d="M42.6711 81.217L45.9863 81.3545L46.1238 78.0392L42.8086 77.9017L42.6711 81.217Z" fill="#D4AE63"/>
<path d="M42.8093 77.9006L46.1245 78.0381L46.262 74.7228L42.9468 74.5853L42.8093 77.9006Z" fill="#D4AE63"/>
<path d="M39.4933 77.7631L42.8086 77.9006L42.9461 74.5854L39.6308 74.4479L39.4933 77.7631Z" fill="#D4AE63"/>
<path d="M36.1789 77.6257L39.4941 77.7632L39.6316 74.4479L36.3164 74.3104L36.1789 77.6257Z" fill="#D4AE63"/>
<path d="M45.7111 87.9848L49.0264 88.1223L49.1639 84.8071L45.8486 84.6696L45.7111 87.9848Z" fill="#D4AE63"/>
<path d="M18.9138 93.5153L22.229 93.6528L22.3665 90.3376L19.0513 90.2001L18.9138 93.5153Z" fill="#D4AE63"/>
<path d="M19.1891 86.8847L22.5044 87.0222L22.6419 83.707L19.3266 83.5695L19.1891 86.8847Z" fill="#D4AE63"/>
<path d="M19.0519 90.2001L22.3672 90.3376L22.5047 87.0224L19.1894 86.8849L19.0519 90.2001Z" fill="#D4AE63"/>
<path d="M19.3264 83.5695L22.6416 83.707L22.7791 80.3918L19.4639 80.2543L19.3264 83.5695Z" fill="#D4AE63"/>
<path d="M19.6017 76.9379L22.917 77.0754L23.0545 73.7602L19.7392 73.6227L19.6017 76.9379Z" fill="#D4AE63"/>
<path d="M19.4645 80.2543L22.7798 80.3918L22.9173 77.0766L19.602 76.9391L19.4645 80.2543Z" fill="#D4AE63"/>
<path d="M21.9543 100.283L25.2695 100.421L25.407 97.1054L22.0918 96.9679L21.9543 100.283Z" fill="#D4AE63"/>
<path d="M25.133 103.736L28.4482 103.873L28.5857 100.558L25.2705 100.421L25.133 103.736Z" fill="#D4AE63"/>
<path d="M22.0925 96.968L25.4077 97.1055L25.5452 93.7902L22.23 93.6527L22.0925 96.968Z" fill="#D4AE63"/>
<path d="M32.0373 97.3806L35.3525 97.5181L35.49 94.2028L32.1748 94.0653L32.0373 97.3806Z" fill="#D4AE63"/>
<path d="M32.7248 80.8044L36.04 80.9419L36.1775 77.6266L32.8623 77.4891L32.7248 80.8044Z" fill="#D4AE63"/>
<path d="M22.5051 87.0222L25.8203 87.1597L25.9578 83.8444L22.6426 83.7069L22.5051 87.0222Z" fill="#D4AE63"/>
<path d="M22.6423 83.707L25.9575 83.8445L26.095 80.5292L22.7798 80.3917L22.6423 83.707Z" fill="#D4AE63"/>
<path d="M25.5451 93.7902L28.8604 93.9277L28.9979 90.6125L25.6826 90.475L25.5451 93.7902Z" fill="#D4AE63"/>
<path d="M25.6823 90.4753L28.9976 90.6128L29.1351 87.2975L25.8198 87.16L25.6823 90.4753Z" fill="#D4AE63"/>
<path d="M28.7228 97.2431L32.0381 97.3806L32.1756 94.0654L28.8603 93.9279L28.7228 97.2431Z" fill="#D4AE63"/>
<path d="M28.8596 93.9279L32.1748 94.0654L32.3123 90.7502L28.9971 90.6127L28.8596 93.9279Z" fill="#D4AE63"/>
<path d="M49.027 88.1223L52.3423 88.2598L52.4798 84.9445L49.1645 84.807L49.027 88.1223Z" fill="#D4AE63"/>
<path d="M48.0637 111.329L51.3789 111.467L51.5164 108.151L48.2012 108.014L48.0637 111.329Z" fill="#C4CFE1"/>
<path d="M35.2155 100.833L38.5308 100.971L38.6683 97.6555L35.353 97.518L35.2155 100.833Z" fill="#D4AE63"/>
<path d="M31.9001 100.696L35.2153 100.833L35.3528 97.518L32.0376 97.3805L31.9001 100.696Z" fill="#D4AE63"/>
<path d="M38.5305 100.971L41.8457 101.108L41.9832 97.7929L38.668 97.6554L38.5305 100.971Z" fill="#D4AE63"/>
<path d="M41.8459 101.108L45.1611 101.246L45.2986 97.9304L41.9834 97.7929L41.8459 101.108Z" fill="#D4AE63"/>
<path d="M38.6686 97.6555L41.9839 97.793L42.1214 94.4777L38.8061 94.3402L38.6686 97.6555Z" fill="#D4AE63"/>
<path d="M35.3527 97.518L38.668 97.6555L38.8055 94.3403L35.4902 94.2028L35.3527 97.518Z" fill="#D4AE63"/>
<path d="M41.9831 97.7932L45.2983 97.9307L45.4358 94.6154L42.1206 94.4779L41.9831 97.7932Z" fill="#D4AE63"/>
<path d="M45.299 97.9306L48.6143 98.0681L48.7518 94.7529L45.4365 94.6154L45.299 97.9306Z" fill="#D4AE63"/>
<path d="M42.1213 94.478L45.4365 94.6155L45.574 91.3002L42.2588 91.1627L42.1213 94.478Z" fill="#D4AE63"/>
<path d="M45.4357 94.6154L48.751 94.7529L48.8885 91.4377L45.5732 91.3002L45.4357 94.6154Z" fill="#D4AE63"/>
<path d="M48.7516 94.7529L52.0669 94.8904L52.2044 91.5751L48.8891 91.4376L48.7516 94.7529Z" fill="#D4AE63"/>
<path d="M338.617 194.321H332.937V188.641H338.617V177.282H344.296V126.167H332.937V120.488H361.335V126.167H349.976V182.962H344.296V188.641H338.617V194.321ZM332.937 194.321V200H298.861V194.321H293.181V188.641H287.502V126.167H276.143V120.488H310.22V126.167H298.861V182.962H304.54V188.641H310.22V194.321H332.937ZM386.324 188.073C386.324 193.298 389.05 196.024 394.389 196.479L397.001 196.706V200H363.606V196.706L366.219 196.479C371.558 196.024 374.284 193.298 374.284 188.073V132.415C374.284 127.19 371.558 124.464 366.219 124.009L363.606 123.782V120.488H397.001V123.782L394.389 124.009C389.05 124.464 386.324 127.19 386.324 132.415V188.073ZM410.63 194.321V200H404.951V177.282H410.63V182.962H416.31V194.321H444.707V188.641H450.386V177.282H444.707V171.603H439.027V165.923H421.989V160.244H410.63V154.565H404.951V126.167H410.63V120.488H439.027V126.167H444.707V120.488H450.386V126.167H456.066V148.885H450.386V143.206H444.707V131.847H439.027V126.167H416.31V131.847H410.63V137.526H416.31V148.885H427.669V154.565H444.707V160.244H450.386V165.923H456.066V194.321H450.386V200H416.31V194.321H410.63ZM465.131 120.488H533.17L534.533 145.477H530.785L528.968 139.116C526.128 129.348 521.13 125.145 512.156 125.145H501.138V127.417H505.227V188.073C505.227 193.298 507.954 196.024 513.292 196.479L515.905 196.706V200H482.51V196.706L485.122 196.479C490.461 196.024 493.187 193.298 493.187 188.073V125.145H486.145C477.171 125.145 472.173 129.348 469.333 139.116L467.516 145.477H463.768L465.131 120.488ZM570.675 194.321V200H542.278V194.321H547.957V126.167H542.278V120.488H570.675V126.167H559.316V194.321H570.675ZM604.707 194.321V200H576.31V194.321H587.669V126.167H581.989V120.488H599.028V126.167H604.707V131.847H610.387V137.526H616.066V143.206H621.746V148.885H627.425V160.244H633.104V165.923H638.784V177.282H644.463V126.167H633.104V120.488H661.502V126.167H650.143V200H644.463V194.321H638.784V182.962H633.104V177.282H627.425V171.603H621.746V165.923H616.066V160.244H610.387V148.885H604.707V143.206H599.028V137.526H593.348V194.321H604.707ZM735.334 133.664V201.136L680.471 135.254V186.824C680.471 192.503 683.197 195.684 688.649 196.365L691.262 196.706V200H663.773V196.706L666.386 196.365C671.838 195.684 674.451 192.617 674.451 186.824V129.802L665.364 120.488H683.765L727.156 171.83V176.033L729.314 178.532V133.664C729.314 127.985 726.588 124.804 721.136 124.123L718.523 123.782V120.488H746.012V123.782L743.399 124.123C737.947 124.804 735.334 127.871 735.334 133.664ZM810.165 194.321V200H776.089V194.321H764.73V188.641H759.05V177.282H753.371V143.206H759.05V131.847H764.73V126.167H776.089V120.488H810.165V126.167H815.845V131.847H821.524V143.206H827.204V177.282H821.524V188.641H815.845V194.321H810.165ZM776.089 194.321H804.486V188.641H810.165V177.282H815.845V148.885H810.165V131.847H804.486V126.167H776.089V131.847H770.409V143.206H764.73V177.282H770.409V188.641H776.089V194.321ZM901.036 200H832.883V194.321H844.242V126.167H832.883V120.488H866.96V126.167H855.601V194.321H889.677V188.641H895.357V177.282H901.036V200ZM973.437 200H909.032V196.706L911.644 196.479C916.983 196.024 919.709 193.298 919.709 188.073V132.415C919.709 127.19 916.983 124.464 911.644 124.009L909.032 123.782V120.488H942.427V123.782L939.814 124.009C934.476 124.464 931.75 127.19 931.75 132.415V193.071H927.66V195.343H953.218C962.532 195.343 968.211 190.118 971.392 178.645L973.323 171.716H977.071L973.437 200ZM1003.83 196.024V200H979.971V196.024H987.923V192.049H991.898V180.122H995.874V172.171H999.849V164.22H1003.83V156.268H1007.8V144.342H1011.78V136.39H1015.75V124.464H1019.73V116.512H1023.7V124.464H1027.68V132.415H1031.65V144.342H1035.63V152.293H1039.61V164.22H1043.58V172.171H1047.56V180.122H1051.53V188.073H1055.51V196.024H1063.46V200H1031.65V196.024H1039.61V184.098H1035.63V172.171H1003.83V176.146H999.849V184.098H995.874V196.024H1003.83ZM1019.73 136.39H1015.75V148.317H1011.78V156.268H1007.8V164.22H1003.83V168.195H1031.65V164.22H1027.68V156.268H1023.7V144.342H1019.73V136.39ZM1115.15 196.024V200H1083.34V196.024H1075.39V192.049H1071.41V180.122H1067.44V124.464H1059.49V120.488H1091.29V124.464H1083.34V128.439H1079.37V180.122H1083.34V188.073H1087.32V192.049H1099.24V196.024H1107.2V192.049H1115.15V188.073H1119.12V180.122H1123.1V128.439H1119.12V124.464H1111.17V120.488H1139V124.464H1131.05V176.146H1127.07V188.073H1123.1V192.049H1119.12V196.024H1115.15ZM1174.84 201.249C1165.64 201.249 1157.8 197.16 1151.44 188.868L1151.56 192.73C1151.9 193.185 1154.28 195.343 1155.08 196.024L1146.67 201.022L1146.33 173.307H1150.31L1153.26 179.781C1158.26 190.799 1165.41 196.138 1175.07 196.138C1185.18 196.138 1191.54 190.572 1191.54 181.939C1191.54 175.806 1187.45 170.808 1179.95 167.854L1160.53 160.13C1151.56 156.496 1146.9 150.135 1146.9 141.615C1146.9 128.439 1156.44 119.352 1170.18 119.352C1179.5 119.352 1187.22 124.123 1191.99 132.642L1191.88 128.439C1191.31 127.53 1188.81 124.577 1188.36 124.236L1196.54 119.579L1196.88 146.159H1192.9L1190.86 141.388C1185.86 129.689 1179.38 124.464 1169.84 124.464C1161.89 124.464 1156.67 129.234 1156.67 136.731C1156.67 142.297 1160.3 146.84 1166.78 149.453L1187.68 157.631C1196.88 161.266 1201.99 168.309 1201.99 177.509C1201.99 191.708 1191.08 201.249 1174.84 201.249Z" fill="#C4CFE1"/>
<path d="M569.964 226.004V269.633H573.32V272.989H556.54V269.633H563.252V232.716H559.896V229.36H556.54V226.004H569.964ZM603.511 266.277V269.633H600.155V262.921H603.511V239.428H600.155V229.36H586.731V236.072H583.375V259.565H586.731V269.633H600.155V272.989H586.731V269.633H583.375V266.277H580.019V259.565H576.663V239.428H580.019V232.716H583.375V229.36H586.731V226.004H600.155V229.36H603.511V232.716H606.867V239.428H610.223V259.565H606.867V266.277H603.511ZM629.998 226.004V270.64H637.045V272.989H615.903V270.64H622.95V230.703H620.601V226.004H629.998ZM658.911 225.266C668.644 225.266 675.893 235.2 675.893 249.295C675.893 263.391 668.711 273.727 659.649 273.727C649.917 273.727 642.668 263.793 642.668 249.698C642.668 235.535 649.783 225.266 658.911 225.266ZM658.844 228.085C653.004 228.085 649.38 235.871 649.38 248.49C649.38 262.115 653.407 270.908 659.582 270.908C665.489 270.908 669.181 263.055 669.181 250.503C669.181 236.878 665.086 228.085 658.844 228.085ZM709.371 266.277V269.633H706.015V262.921H709.371V239.428H706.015V229.36H692.59V236.072H689.234V259.565H692.59V269.633H706.015V272.989H692.59V269.633H689.234V266.277H685.878V259.565H682.522V239.428H685.878V232.716H689.234V229.36H692.59V226.004H706.015V229.36H709.371V232.716H712.727V239.428H716.083V259.565H712.727V266.277H709.371ZM745.254 270.64V272.989H733.508V270.64H728.809V265.941H726.46V263.592H724.111V254.195H721.762V247.147H724.111V237.75H726.46V233.052H728.809V228.354H733.508V226.004H745.254V228.354H749.952V233.052H752.302V235.401H754.651V244.798H757V251.846H754.651V261.243H752.302V265.941H749.952V270.64H745.254ZM735.857 270.64H742.905V268.29H745.254V265.941H747.603V258.893H749.952V244.798H747.603V235.401H745.254V230.703H742.905V228.354H735.857V230.703H733.508V233.052H731.159V240.1H728.809V256.544H731.159V263.592H733.508V268.29H735.857V270.64Z" fill="#C4CFE1"/>
<path d="M111.191 150.064V143.72H117.535V137.376H123.878V131.033H136.718V112.002H142.909V105.659H149.253V99.3151H161.94V92.9716H193.81V99.3151H200.153V105.659H206.497V118.346H212.84V137.376H219.032V131.033H225.375V124.689H231.719V118.346H238.215V112.002H250.902V105.659H269.933V112.002H257.245V124.689H250.902V137.376H244.558V150.064H238.215V162.751H231.871V188.125H238.215V194.469H257.245V187.973H263.589V169.094H244.711V175.438H238.215V169.094H244.558V162.751H263.741V169.094H269.933V188.125H263.589V194.621H257.245V200.812H231.871V194.469H225.528V188.125H219.184V162.751H225.528V143.72H231.871V137.376H238.215V124.689H231.871V131.033H225.528V137.376H219.184V150.064H212.84V156.407H206.497V169.247H200.153V181.781H193.81V169.094H200.153V118.498H193.81V131.185H187.466V143.872H181.123V162.954H174.779V175.438H168.588V181.781H162.244V188.125H155.901V194.469H143.214V200.812H117.535V194.469H111.191V188.125H105V150.064H111.191ZM142.909 137.376H124.031V143.72H117.687V150.064H111.344V188.125H117.687V194.469H143.061V188.125H130.374V181.781H124.031V175.59H117.687V156.407H123.878V150.064H130.222V143.72H136.718V150.064H130.374V156.407H124.031V175.438H130.526V181.781H142.909V175.438H155.748V169.094H162.092V156.407H168.436V137.376H162.092V143.72H142.909V137.376ZM187.466 99.3151H162.092V105.659H149.405V112.002H143.061V124.689H162.092V131.033H168.436V118.346H174.779V131.033H168.588V137.376H174.779V143.72H181.123V131.033H187.466V118.346H193.81V105.659H187.466V99.3151ZM143.061 137.376H161.94V131.033H143.061V137.376ZM168.436 175.438V169.247H162.092V175.438H168.436ZM143.214 188.125H155.748V181.781H143.214V188.125ZM162.092 175.59H155.748V181.781H162.092V175.59ZM238.215 124.689H244.558V118.498H238.215V124.689ZM168.436 156.559V162.751H174.779V156.559H168.436Z" fill="#C4CFE1"/>
</svg>
